<mxfile>
  <diagram id="VBAP8C_gosauCxdco718" name="Page-1">
    <mxGraphModel dx="1394" dy="995" grid="1" gridSize="10" guides="1" tooltips="1" connect="1" arrows="1" fold="1" page="1" pageScale="1" pageWidth="1169" pageHeight="827" math="0" shadow="0">
      <root>
        <mxCell id="0" />
        <mxCell id="1" parent="0" />
        <mxCell id="4" value="" style="edgeStyle=none;html=1;" edge="1" parent="1" source="2" target="3">
          <mxGeometry relative="1" as="geometry" />
        </mxCell>
        <mxCell id="12" style="edgeStyle=none;html=1;entryX=0.5;entryY=0;entryDx=0;entryDy=0;" edge="1" parent="1" source="2" target="5">
          <mxGeometry relative="1" as="geometry">
            <Array as="points">
              <mxPoint x="140" y="140" />
            </Array>
          </mxGeometry>
        </mxCell>
        <mxCell id="13" style="edgeStyle=none;html=1;" edge="1" parent="1" source="2" target="7">
          <mxGeometry relative="1" as="geometry">
            <Array as="points">
              <mxPoint x="540" y="140" />
            </Array>
          </mxGeometry>
        </mxCell>
        <mxCell id="18" value="" style="edgeStyle=none;html=1;entryX=0.5;entryY=0;entryDx=0;entryDy=0;" edge="1" parent="1" source="2" target="21">
          <mxGeometry relative="1" as="geometry">
            <mxPoint x="750.0000000000002" y="210" as="targetPoint" />
            <Array as="points">
              <mxPoint x="800" y="140" />
            </Array>
          </mxGeometry>
        </mxCell>
        <mxCell id="2" value="View Client Master List" style="rounded=0;whiteSpace=wrap;html=1;" vertex="1" parent="1">
          <mxGeometry x="280" y="110" width="120" height="60" as="geometry" />
        </mxCell>
        <mxCell id="22" style="edgeStyle=none;html=1;entryX=0.5;entryY=0;entryDx=0;entryDy=0;" edge="1" parent="1" source="9" target="2">
          <mxGeometry relative="1" as="geometry" />
        </mxCell>
        <mxCell id="9" value="&lt;b&gt;Acess Client Module&lt;/b&gt;" style="rounded=0;whiteSpace=wrap;html=1;fillColor=#fad7ac;strokeColor=#b46504;" vertex="1" parent="1">
          <mxGeometry x="280" y="10" width="120" height="60" as="geometry" />
        </mxCell>
        <mxCell id="51" value="" style="edgeStyle=orthogonalEdgeStyle;html=1;" edge="1" parent="1" source="21" target="50">
          <mxGeometry relative="1" as="geometry" />
        </mxCell>
        <mxCell id="54" style="edgeStyle=orthogonalEdgeStyle;html=1;exitX=1;exitY=0.5;exitDx=0;exitDy=0;entryX=0;entryY=0.5;entryDx=0;entryDy=0;" edge="1" parent="1" source="21" target="53">
          <mxGeometry relative="1" as="geometry" />
        </mxCell>
        <mxCell id="55" style="edgeStyle=orthogonalEdgeStyle;html=1;exitX=1;exitY=0.5;exitDx=0;exitDy=0;entryX=0;entryY=0.5;entryDx=0;entryDy=0;" edge="1" parent="1" source="21" target="56">
          <mxGeometry relative="1" as="geometry">
            <mxPoint x="820" y="470" as="targetPoint" />
          </mxGeometry>
        </mxCell>
        <mxCell id="21" value="&lt;span style=&quot;caret-color: rgb(0, 0, 0); color: rgb(0, 0, 0); text-align: start;&quot;&gt;&lt;/span&gt;&lt;span style=&quot;caret-color: rgb(0, 0, 0); color: rgb(0, 0, 0); text-align: start;&quot;&gt;&lt;/span&gt;&lt;span style=&quot;caret-color: rgb(0, 0, 0); color: rgb(0, 0, 0); text-align: start; white-space-collapse: preserve;&quot;&gt;Edit Client Details/Side Panel&lt;/span&gt;" style="rhombus;whiteSpace=wrap;html=1;fillColor=#fad7ac;strokeColor=#b46504;" vertex="1" parent="1">
          <mxGeometry x="760" y="210" width="80" height="80" as="geometry" />
        </mxCell>
        <mxCell id="48" value="&lt;span style=&quot;caret-color: rgb(0, 0, 0); color: rgb(0, 0, 0); text-align: start;&quot;&gt;&lt;/span&gt;&lt;span style=&quot;caret-color: rgb(0, 0, 0); color: rgb(0, 0, 0); text-align: start;&quot;&gt;&lt;/span&gt;&lt;span style=&quot;caret-color: rgb(0, 0, 0); color: rgb(0, 0, 0); text-align: start; white-space-collapse: preserve;&quot;&gt;Save&lt;/span&gt;" style="ellipse;whiteSpace=wrap;html=1;rounded=0;" vertex="1" parent="1">
          <mxGeometry x="660" y="670" width="80" height="80" as="geometry" />
        </mxCell>
        <mxCell id="37" value="" style="edgeStyle=orthogonalEdgeStyle;html=1;" edge="1" parent="1" source="3" target="36">
          <mxGeometry relative="1" as="geometry" />
        </mxCell>
        <mxCell id="3" value="&lt;span style=&quot;caret-color: rgb(0, 0, 0); color: rgb(0, 0, 0); text-align: start;&quot;&gt;&lt;/span&gt;&lt;span style=&quot;caret-color: rgb(0, 0, 0); color: rgb(0, 0, 0); text-align: start;&quot;&gt;&lt;/span&gt;&lt;span style=&quot;caret-color: rgb(0, 0, 0); color: rgb(0, 0, 0); text-align: start; white-space-collapse: preserve;&quot;&gt;Export Client List&lt;/span&gt;" style="rounded=0;whiteSpace=wrap;html=1;" vertex="1" parent="1">
          <mxGeometry x="280" y="220" width="120" height="60" as="geometry" />
        </mxCell>
        <mxCell id="198" style="edgeStyle=orthogonalEdgeStyle;html=1;entryX=0;entryY=0.75;entryDx=0;entryDy=0;" edge="1" parent="1" source="5" target="14">
          <mxGeometry relative="1" as="geometry">
            <Array as="points">
              <mxPoint x="60" y="250" />
              <mxPoint x="60" y="365" />
            </Array>
          </mxGeometry>
        </mxCell>
        <mxCell id="201" style="edgeStyle=orthogonalEdgeStyle;html=1;exitX=0;exitY=0.5;exitDx=0;exitDy=0;entryX=0;entryY=0.5;entryDx=0;entryDy=0;" edge="1" parent="1" source="5" target="27">
          <mxGeometry relative="1" as="geometry">
            <Array as="points">
              <mxPoint x="60" y="250" />
              <mxPoint x="60" y="440" />
            </Array>
          </mxGeometry>
        </mxCell>
        <mxCell id="202" style="edgeStyle=orthogonalEdgeStyle;html=1;exitX=0;exitY=0.5;exitDx=0;exitDy=0;entryX=0;entryY=0.5;entryDx=0;entryDy=0;" edge="1" parent="1" source="5" target="30">
          <mxGeometry relative="1" as="geometry">
            <Array as="points">
              <mxPoint x="60" y="250" />
              <mxPoint x="60" y="530" />
            </Array>
          </mxGeometry>
        </mxCell>
        <mxCell id="203" style="edgeStyle=orthogonalEdgeStyle;html=1;exitX=0;exitY=0.5;exitDx=0;exitDy=0;entryX=0;entryY=0.5;entryDx=0;entryDy=0;" edge="1" parent="1" source="5" target="31">
          <mxGeometry relative="1" as="geometry">
            <Array as="points">
              <mxPoint x="60" y="250" />
              <mxPoint x="60" y="620" />
            </Array>
          </mxGeometry>
        </mxCell>
        <mxCell id="5" value="&lt;span style=&quot;caret-color: rgb(0, 0, 0); color: rgb(0, 0, 0); text-align: start;&quot;&gt;&lt;/span&gt;&lt;span style=&quot;caret-color: rgb(0, 0, 0); color: rgb(0, 0, 0); text-align: start;&quot;&gt;&lt;/span&gt;&lt;span style=&quot;caret-color: rgb(0, 0, 0); color: rgb(0, 0, 0); text-align: start; white-space-collapse: preserve;&quot;&gt;Search Client&lt;/span&gt;" style="rounded=0;whiteSpace=wrap;html=1;" vertex="1" parent="1">
          <mxGeometry x="80" y="220" width="120" height="60" as="geometry" />
        </mxCell>
        <mxCell id="200" style="edgeStyle=orthogonalEdgeStyle;html=1;exitX=0;exitY=0.5;exitDx=0;exitDy=0;entryX=0;entryY=0.5;entryDx=0;entryDy=0;" edge="1" parent="1" source="7" target="38">
          <mxGeometry relative="1" as="geometry">
            <Array as="points">
              <mxPoint x="460" y="250" />
              <mxPoint x="460" y="350" />
            </Array>
          </mxGeometry>
        </mxCell>
        <mxCell id="204" style="edgeStyle=orthogonalEdgeStyle;html=1;entryX=0;entryY=0.5;entryDx=0;entryDy=0;" edge="1" parent="1" target="190">
          <mxGeometry relative="1" as="geometry">
            <mxPoint x="480" y="250" as="sourcePoint" />
            <mxPoint x="480" y="960" as="targetPoint" />
            <Array as="points">
              <mxPoint x="460" y="250" />
              <mxPoint x="460" y="970" />
            </Array>
          </mxGeometry>
        </mxCell>
        <mxCell id="7" value="&lt;span style=&quot;caret-color: rgb(0, 0, 0); color: rgb(0, 0, 0); text-align: start;&quot;&gt;&lt;/span&gt;&lt;span style=&quot;caret-color: rgb(0, 0, 0); color: rgb(0, 0, 0); text-align: start;&quot;&gt;&lt;/span&gt;&lt;span style=&quot;caret-color: rgb(0, 0, 0); color: rgb(0, 0, 0); text-align: start; white-space-collapse: preserve;&quot;&gt;Add New Client&lt;/span&gt;" style="rounded=0;whiteSpace=wrap;html=1;" vertex="1" parent="1">
          <mxGeometry x="480" y="220" width="120" height="60" as="geometry" />
        </mxCell>
        <mxCell id="30" value="&lt;span style=&quot;caret-color: rgb(0, 0, 0); color: rgb(0, 0, 0); font-style: normal; font-variant-caps: normal; font-weight: 400; letter-spacing: normal; text-align: start; text-indent: 0px; text-transform: none; white-space: normal; word-spacing: 0px; -webkit-text-stroke-width: 0px; text-decoration: none;&quot;&gt;&lt;/span&gt;&lt;span style=&quot;caret-color: rgb(0, 0, 0); color: rgb(0, 0, 0); font-style: normal; font-variant-caps: normal; font-weight: 400; letter-spacing: normal; text-align: start; text-indent: 0px; text-transform: none; white-space: normal; word-spacing: 0px; -webkit-text-stroke-width: 0px; text-decoration: none;&quot;&gt;&lt;/span&gt;&lt;span style=&quot;caret-color: rgb(0, 0, 0); color: rgb(0, 0, 0); font-style: normal; font-variant-caps: normal; font-weight: 400; letter-spacing: normal; text-align: start; text-indent: 0px; text-transform: none; white-space: pre-wrap; word-spacing: 0px; -webkit-text-stroke-width: 0px; text-decoration: none;&quot;&gt;By ID&lt;/span&gt;" style="rounded=0;whiteSpace=wrap;html=1;" vertex="1" parent="1">
          <mxGeometry x="80" y="500" width="120" height="60" as="geometry" />
        </mxCell>
        <mxCell id="31" value="&lt;span style=&quot;caret-color: rgb(0, 0, 0); color: rgb(0, 0, 0); font-style: normal; font-variant-caps: normal; font-weight: 400; letter-spacing: normal; text-align: start; text-indent: 0px; text-transform: none; white-space: normal; word-spacing: 0px; -webkit-text-stroke-width: 0px; text-decoration: none;&quot;&gt;&lt;/span&gt;&lt;span style=&quot;caret-color: rgb(0, 0, 0); color: rgb(0, 0, 0); font-style: normal; font-variant-caps: normal; font-weight: 400; letter-spacing: normal; text-align: start; text-indent: 0px; text-transform: none; white-space: normal; word-spacing: 0px; -webkit-text-stroke-width: 0px; text-decoration: none;&quot;&gt;&lt;/span&gt;&lt;span style=&quot;caret-color: rgb(0, 0, 0); color: rgb(0, 0, 0); font-style: normal; font-variant-caps: normal; font-weight: 400; letter-spacing: normal; text-align: start; text-indent: 0px; text-transform: none; white-space: pre-wrap; word-spacing: 0px; -webkit-text-stroke-width: 0px; text-decoration: none;&quot;&gt;By ID&lt;/span&gt;" style="rounded=0;whiteSpace=wrap;html=1;" vertex="1" parent="1">
          <mxGeometry x="80" y="590" width="120" height="60" as="geometry" />
        </mxCell>
        <mxCell id="36" value="&lt;span style=&quot;caret-color: rgb(0, 0, 0); color: rgb(0, 0, 0); text-align: start;&quot;&gt;&lt;/span&gt;&lt;span style=&quot;caret-color: rgb(0, 0, 0); color: rgb(0, 0, 0); text-align: start;&quot;&gt;&lt;/span&gt;&lt;span style=&quot;caret-color: rgb(0, 0, 0); color: rgb(0, 0, 0); text-align: start;&quot;&gt;&lt;/span&gt;&lt;span style=&quot;caret-color: rgb(0, 0, 0); color: rgb(0, 0, 0); text-align: start; white-space-collapse: preserve;&quot;&gt;Displays a  preview and downloads as CSV&lt;/span&gt;" style="rounded=0;whiteSpace=wrap;html=1;" vertex="1" parent="1">
          <mxGeometry x="280" y="320" width="120" height="60" as="geometry" />
        </mxCell>
        <mxCell id="41" value="" style="edgeStyle=orthogonalEdgeStyle;html=1;" edge="1" parent="1" source="38" target="40">
          <mxGeometry relative="1" as="geometry" />
        </mxCell>
        <mxCell id="38" value="&lt;span style=&quot;caret-color: rgb(0, 0, 0); color: rgb(0, 0, 0); text-align: start;&quot;&gt;&lt;/span&gt;&lt;span style=&quot;caret-color: rgb(0, 0, 0); color: rgb(0, 0, 0); text-align: start;&quot;&gt;&lt;/span&gt;&lt;span style=&quot;caret-color: rgb(0, 0, 0); color: rgb(0, 0, 0); text-align: start; white-space-collapse: preserve;&quot;&gt;Fill in &lt;/span&gt;&lt;div&gt;&lt;span style=&quot;caret-color: rgb(0, 0, 0); color: rgb(0, 0, 0); text-align: start; white-space-collapse: preserve;&quot;&gt;Client &lt;/span&gt;&lt;/div&gt;&lt;div&gt;&lt;span style=&quot;caret-color: rgb(0, 0, 0); color: rgb(0, 0, 0); text-align: start; white-space-collapse: preserve;&quot;&gt;Details&lt;/span&gt;&lt;/div&gt;" style="rhombus;whiteSpace=wrap;html=1;rounded=0;fillColor=#fad7ac;strokeColor=#b46504;" vertex="1" parent="1">
          <mxGeometry x="500" y="310" width="80" height="80" as="geometry" />
        </mxCell>
        <mxCell id="43" value="" style="edgeStyle=orthogonalEdgeStyle;html=1;" edge="1" parent="1" source="40" target="42">
          <mxGeometry relative="1" as="geometry" />
        </mxCell>
        <mxCell id="40" value="&lt;span style=&quot;caret-color: rgb(0, 0, 0); color: rgb(0, 0, 0); text-align: start;&quot;&gt;&lt;/span&gt;&lt;span style=&quot;caret-color: rgb(0, 0, 0); color: rgb(0, 0, 0); text-align: start;&quot;&gt;&lt;/span&gt;&lt;span style=&quot;caret-color: rgb(0, 0, 0); color: rgb(0, 0, 0); text-align: start; white-space-collapse: preserve;&quot;&gt;(1)&lt;br&gt;Client Information&lt;/span&gt;" style="whiteSpace=wrap;html=1;rounded=0;" vertex="1" parent="1">
          <mxGeometry x="640" y="320" width="120" height="60" as="geometry" />
        </mxCell>
        <mxCell id="45" value="" style="edgeStyle=orthogonalEdgeStyle;html=1;" edge="1" parent="1" source="42" target="44">
          <mxGeometry relative="1" as="geometry" />
        </mxCell>
        <mxCell id="42" value="&lt;span style=&quot;caret-color: rgb(0, 0, 0); color: rgb(0, 0, 0); text-align: start;&quot;&gt;&lt;/span&gt;&lt;span style=&quot;caret-color: rgb(0, 0, 0); color: rgb(0, 0, 0); text-align: start;&quot;&gt;&lt;/span&gt;&lt;span style=&quot;caret-color: rgb(0, 0, 0); color: rgb(0, 0, 0); text-align: start; white-space-collapse: preserve;&quot;&gt;(2)&lt;br&gt;Employees/Contact&lt;/span&gt;" style="whiteSpace=wrap;html=1;rounded=0;" vertex="1" parent="1">
          <mxGeometry x="640" y="410" width="120" height="60" as="geometry" />
        </mxCell>
        <mxCell id="47" value="" style="edgeStyle=orthogonalEdgeStyle;html=1;" edge="1" parent="1" source="44" target="46">
          <mxGeometry relative="1" as="geometry" />
        </mxCell>
        <mxCell id="44" value="&lt;span style=&quot;caret-color: rgb(0, 0, 0); color: rgb(0, 0, 0); text-align: start;&quot;&gt;&lt;/span&gt;&lt;span style=&quot;caret-color: rgb(0, 0, 0); color: rgb(0, 0, 0); text-align: start;&quot;&gt;&lt;/span&gt;&lt;span style=&quot;caret-color: rgb(0, 0, 0); color: rgb(0, 0, 0); text-align: start; white-space-collapse: preserve;&quot;&gt;(3)&lt;br&gt;Data Exchange Contacts&lt;/span&gt;" style="whiteSpace=wrap;html=1;rounded=0;" vertex="1" parent="1">
          <mxGeometry x="640" y="500" width="120" height="60" as="geometry" />
        </mxCell>
        <mxCell id="49" value="" style="edgeStyle=orthogonalEdgeStyle;html=1;" edge="1" parent="1" source="46" target="48">
          <mxGeometry relative="1" as="geometry" />
        </mxCell>
        <mxCell id="46" value="&lt;span style=&quot;caret-color: rgb(0, 0, 0); color: rgb(0, 0, 0); text-align: start;&quot;&gt;&lt;/span&gt;&lt;span style=&quot;caret-color: rgb(0, 0, 0); color: rgb(0, 0, 0); text-align: start;&quot;&gt;&lt;/span&gt;&lt;span style=&quot;caret-color: rgb(0, 0, 0); color: rgb(0, 0, 0); text-align: start; white-space-collapse: preserve;&quot;&gt;(4)&lt;br&gt;Notes and Instructions&lt;/span&gt;" style="whiteSpace=wrap;html=1;rounded=0;" vertex="1" parent="1">
          <mxGeometry x="640" y="590" width="120" height="60" as="geometry" />
        </mxCell>
        <mxCell id="206" value="" style="edgeStyle=orthogonalEdgeStyle;html=1;" edge="1" parent="1" source="190" target="205">
          <mxGeometry relative="1" as="geometry" />
        </mxCell>
        <mxCell id="296" style="edgeStyle=orthogonalEdgeStyle;html=1;exitX=0.5;exitY=1;exitDx=0;exitDy=0;" edge="1" parent="1" source="190" target="208">
          <mxGeometry relative="1" as="geometry">
            <Array as="points">
              <mxPoint x="540" y="1080" />
              <mxPoint x="140" y="1080" />
            </Array>
          </mxGeometry>
        </mxCell>
        <mxCell id="299" style="edgeStyle=orthogonalEdgeStyle;html=1;" edge="1" parent="1" target="209">
          <mxGeometry relative="1" as="geometry">
            <mxPoint x="540" y="1060" as="sourcePoint" />
            <Array as="points">
              <mxPoint x="540" y="1080" />
              <mxPoint x="1490" y="1080" />
            </Array>
          </mxGeometry>
        </mxCell>
        <mxCell id="190" value="&lt;span style=&quot;caret-color: rgb(0, 0, 0); color: rgb(0, 0, 0); text-align: start;&quot;&gt;&lt;/span&gt;&lt;span style=&quot;caret-color: rgb(0, 0, 0); color: rgb(0, 0, 0); text-align: start;&quot;&gt;&lt;/span&gt;&lt;span style=&quot;caret-color: rgb(0, 0, 0); color: rgb(0, 0, 0); text-align: start;&quot;&gt;&lt;/span&gt;&lt;span style=&quot;caret-color: rgb(0, 0, 0); color: rgb(0, 0, 0); text-align: start; white-space-collapse: preserve;&quot;&gt;&lt;b&gt;Use Case/Scenarios for Creating Clients&lt;/b&gt;&lt;/span&gt;" style="rounded=0;whiteSpace=wrap;html=1;fillColor=#fad7ac;strokeColor=#b46504;" vertex="1" parent="1">
          <mxGeometry x="480" y="940" width="120" height="60" as="geometry" />
        </mxCell>
        <mxCell id="14" value="&lt;span style=&quot;caret-color: rgb(0, 0, 0); color: rgb(0, 0, 0); text-align: start;&quot;&gt;&lt;/span&gt;&lt;span style=&quot;caret-color: rgb(0, 0, 0); color: rgb(0, 0, 0); text-align: start;&quot;&gt;&lt;/span&gt;&lt;span style=&quot;caret-color: rgb(0, 0, 0); color: rgb(0, 0, 0); text-align: start; white-space-collapse: preserve;&quot;&gt;Reset&lt;/span&gt;&lt;span style=&quot;caret-color: rgb(0, 0, 0); color: rgb(0, 0, 0); text-align: start;&quot;&gt;&lt;/span&gt;" style="rounded=0;whiteSpace=wrap;html=1;" vertex="1" parent="1">
          <mxGeometry x="80" y="320" width="120" height="60" as="geometry" />
        </mxCell>
        <mxCell id="27" value="&lt;span style=&quot;caret-color: rgb(0, 0, 0); color: rgb(0, 0, 0); font-style: normal; font-variant-caps: normal; font-weight: 400; letter-spacing: normal; text-align: start; text-indent: 0px; text-transform: none; white-space: normal; word-spacing: 0px; -webkit-text-stroke-width: 0px; text-decoration: none;&quot;&gt;&lt;/span&gt;&lt;span style=&quot;caret-color: rgb(0, 0, 0); color: rgb(0, 0, 0); font-style: normal; font-variant-caps: normal; font-weight: 400; letter-spacing: normal; text-align: start; text-indent: 0px; text-transform: none; white-space: normal; word-spacing: 0px; -webkit-text-stroke-width: 0px; text-decoration: none;&quot;&gt;&lt;/span&gt;&lt;span style=&quot;caret-color: rgb(0, 0, 0); color: rgb(0, 0, 0); font-style: normal; font-variant-caps: normal; font-weight: 400; letter-spacing: normal; text-align: start; text-indent: 0px; text-transform: none; white-space: pre-wrap; word-spacing: 0px; -webkit-text-stroke-width: 0px; text-decoration: none;&quot;&gt;Search&lt;/span&gt;" style="rounded=0;whiteSpace=wrap;html=1;" vertex="1" parent="1">
          <mxGeometry x="80" y="410" width="120" height="60" as="geometry" />
        </mxCell>
        <mxCell id="59" value="" style="edgeStyle=orthogonalEdgeStyle;html=1;" edge="1" parent="1" source="50" target="58">
          <mxGeometry relative="1" as="geometry" />
        </mxCell>
        <mxCell id="60" value="" style="edgeStyle=orthogonalEdgeStyle;html=1;" edge="1" parent="1" source="50" target="58">
          <mxGeometry relative="1" as="geometry" />
        </mxCell>
        <mxCell id="61" value="" style="edgeStyle=orthogonalEdgeStyle;html=1;" edge="1" parent="1" source="50" target="58">
          <mxGeometry relative="1" as="geometry" />
        </mxCell>
        <mxCell id="64" style="edgeStyle=orthogonalEdgeStyle;html=1;entryX=0;entryY=0.5;entryDx=0;entryDy=0;" edge="1" parent="1" source="50" target="62">
          <mxGeometry relative="1" as="geometry" />
        </mxCell>
        <mxCell id="65" style="edgeStyle=orthogonalEdgeStyle;html=1;entryX=0;entryY=0.5;entryDx=0;entryDy=0;" edge="1" parent="1" source="50" target="63">
          <mxGeometry relative="1" as="geometry" />
        </mxCell>
        <mxCell id="50" value="Client Details" style="whiteSpace=wrap;html=1;" vertex="1" parent="1">
          <mxGeometry x="870" y="220" width="120" height="60" as="geometry" />
        </mxCell>
        <mxCell id="114" value="" style="edgeStyle=orthogonalEdgeStyle;html=1;" edge="1" parent="1" source="53" target="113">
          <mxGeometry relative="1" as="geometry" />
        </mxCell>
        <mxCell id="115" value="" style="edgeStyle=orthogonalEdgeStyle;html=1;" edge="1" parent="1" source="53" target="113">
          <mxGeometry relative="1" as="geometry" />
        </mxCell>
        <mxCell id="117" style="edgeStyle=orthogonalEdgeStyle;html=1;entryX=0;entryY=0.5;entryDx=0;entryDy=0;" edge="1" parent="1" source="53" target="116">
          <mxGeometry relative="1" as="geometry" />
        </mxCell>
        <mxCell id="53" value="Contact List" style="rounded=0;whiteSpace=wrap;html=1;" vertex="1" parent="1">
          <mxGeometry x="870" y="660" width="120" height="60" as="geometry" />
        </mxCell>
        <mxCell id="175" value="" style="edgeStyle=orthogonalEdgeStyle;html=1;" edge="1" parent="1" source="56" target="174">
          <mxGeometry relative="1" as="geometry" />
        </mxCell>
        <mxCell id="56" value="Data Exchange" style="rounded=0;whiteSpace=wrap;html=1;" vertex="1" parent="1">
          <mxGeometry x="870" y="940" width="120" height="60" as="geometry" />
        </mxCell>
        <mxCell id="71" value="" style="edgeStyle=orthogonalEdgeStyle;html=1;" edge="1" parent="1" source="58" target="70">
          <mxGeometry relative="1" as="geometry" />
        </mxCell>
        <mxCell id="58" value="&lt;span style=&quot;caret-color: rgb(0, 0, 0); color: rgb(0, 0, 0); text-align: start;&quot;&gt;&lt;/span&gt;&lt;span style=&quot;caret-color: rgb(0, 0, 0); color: rgb(0, 0, 0); text-align: start;&quot;&gt;&lt;/span&gt;&lt;span style=&quot;caret-color: rgb(0, 0, 0); color: rgb(0, 0, 0); text-align: start; white-space-collapse: preserve;&quot;&gt;Edit Client Instructions&lt;/span&gt;" style="whiteSpace=wrap;html=1;" vertex="1" parent="1">
          <mxGeometry x="1050" y="220" width="120" height="60" as="geometry" />
        </mxCell>
        <mxCell id="67" value="" style="edgeStyle=orthogonalEdgeStyle;html=1;" edge="1" parent="1" source="62" target="66">
          <mxGeometry relative="1" as="geometry" />
        </mxCell>
        <mxCell id="62" value="Edit Client Details" style="whiteSpace=wrap;html=1;" vertex="1" parent="1">
          <mxGeometry x="1050" y="50" width="120" height="60" as="geometry" />
        </mxCell>
        <mxCell id="73" value="" style="edgeStyle=orthogonalEdgeStyle;html=1;" edge="1" parent="1" source="63" target="72">
          <mxGeometry relative="1" as="geometry" />
        </mxCell>
        <mxCell id="63" value="&lt;span style=&quot;caret-color: rgb(0, 0, 0); color: rgb(0, 0, 0); text-align: start;&quot;&gt;&lt;/span&gt;&lt;span style=&quot;caret-color: rgb(0, 0, 0); color: rgb(0, 0, 0); text-align: start;&quot;&gt;&lt;/span&gt;&lt;span style=&quot;caret-color: rgb(0, 0, 0); color: rgb(0, 0, 0); text-align: start; white-space-collapse: preserve;&quot;&gt;Edit Billing Preferences&lt;/span&gt;" style="whiteSpace=wrap;html=1;" vertex="1" parent="1">
          <mxGeometry x="1050" y="440" width="120" height="60" as="geometry" />
        </mxCell>
        <mxCell id="69" value="" style="edgeStyle=orthogonalEdgeStyle;html=1;" edge="1" parent="1" source="66" target="68">
          <mxGeometry relative="1" as="geometry" />
        </mxCell>
        <mxCell id="66" value="&lt;span style=&quot;caret-color: rgb(0, 0, 0); color: rgb(0, 0, 0); text-align: start;&quot;&gt;&lt;/span&gt;&lt;span style=&quot;caret-color: rgb(0, 0, 0); color: rgb(0, 0, 0); text-align: start;&quot;&gt;&lt;/span&gt;&lt;span style=&quot;caret-color: rgb(0, 0, 0); color: rgb(0, 0, 0); text-align: start; white-space-collapse: preserve;&quot;&gt;(1)&lt;br&gt;Client Information&lt;/span&gt;" style="whiteSpace=wrap;html=1;" vertex="1" parent="1">
          <mxGeometry x="1220" y="50" width="120" height="60" as="geometry" />
        </mxCell>
        <mxCell id="79" value="" style="edgeStyle=orthogonalEdgeStyle;html=1;" edge="1" parent="1" source="68" target="78">
          <mxGeometry relative="1" as="geometry" />
        </mxCell>
        <mxCell id="80" value="" style="edgeStyle=orthogonalEdgeStyle;html=1;" edge="1" parent="1" source="68" target="78">
          <mxGeometry relative="1" as="geometry" />
        </mxCell>
        <mxCell id="81" value="" style="edgeStyle=orthogonalEdgeStyle;html=1;" edge="1" parent="1" source="68" target="78">
          <mxGeometry relative="1" as="geometry" />
        </mxCell>
        <mxCell id="82" value="" style="edgeStyle=orthogonalEdgeStyle;html=1;" edge="1" parent="1" source="68" target="78">
          <mxGeometry relative="1" as="geometry" />
        </mxCell>
        <mxCell id="83" value="" style="edgeStyle=orthogonalEdgeStyle;html=1;" edge="1" parent="1" source="68" target="78">
          <mxGeometry relative="1" as="geometry" />
        </mxCell>
        <mxCell id="84" value="" style="edgeStyle=orthogonalEdgeStyle;html=1;" edge="1" parent="1" source="68" target="78">
          <mxGeometry relative="1" as="geometry" />
        </mxCell>
        <mxCell id="86" style="edgeStyle=orthogonalEdgeStyle;html=1;exitX=1;exitY=0.5;exitDx=0;exitDy=0;entryX=0;entryY=0.5;entryDx=0;entryDy=0;" edge="1" parent="1" source="68" target="85">
          <mxGeometry relative="1" as="geometry" />
        </mxCell>
        <mxCell id="68" value="&lt;span style=&quot;caret-color: rgb(0, 0, 0); color: rgb(0, 0, 0); text-align: start;&quot;&gt;&lt;/span&gt;&lt;span style=&quot;caret-color: rgb(0, 0, 0); color: rgb(0, 0, 0); text-align: start;&quot;&gt;&lt;/span&gt;&lt;span style=&quot;caret-color: rgb(0, 0, 0); color: rgb(0, 0, 0); text-align: start; white-space-collapse: preserve;&quot;&gt;Fill in Client Information&lt;/span&gt;" style="rhombus;whiteSpace=wrap;html=1;fillColor=#fad7ac;strokeColor=#b46504;" vertex="1" parent="1">
          <mxGeometry x="1390" y="40" width="80" height="80" as="geometry" />
        </mxCell>
        <mxCell id="76" style="edgeStyle=orthogonalEdgeStyle;html=1;exitX=1;exitY=0.5;exitDx=0;exitDy=0;" edge="1" parent="1" source="70" target="74">
          <mxGeometry relative="1" as="geometry" />
        </mxCell>
        <mxCell id="70" value="&lt;span style=&quot;caret-color: rgb(0, 0, 0); color: rgb(0, 0, 0); text-align: start;&quot;&gt;&lt;/span&gt;&lt;span style=&quot;caret-color: rgb(0, 0, 0); color: rgb(0, 0, 0); text-align: start;&quot;&gt;&lt;/span&gt;&lt;span style=&quot;caret-color: rgb(0, 0, 0); color: rgb(0, 0, 0); text-align: start;&quot;&gt;&lt;/span&gt;&lt;span style=&quot;caret-color: rgb(0, 0, 0); color: rgb(0, 0, 0); text-align: start; white-space-collapse: preserve;&quot;&gt;(4)&lt;br&gt;Notes and Instructions&lt;/span&gt;" style="whiteSpace=wrap;html=1;" vertex="1" parent="1">
          <mxGeometry x="1220" y="220" width="120" height="60" as="geometry" />
        </mxCell>
        <mxCell id="109" style="edgeStyle=orthogonalEdgeStyle;html=1;exitX=1;exitY=0.5;exitDx=0;exitDy=0;entryX=0;entryY=0.5;entryDx=0;entryDy=0;" edge="1" parent="1" source="72" target="101">
          <mxGeometry relative="1" as="geometry" />
        </mxCell>
        <mxCell id="110" style="edgeStyle=orthogonalEdgeStyle;html=1;entryX=0;entryY=0.5;entryDx=0;entryDy=0;" edge="1" parent="1" source="72" target="106">
          <mxGeometry relative="1" as="geometry" />
        </mxCell>
        <mxCell id="112" style="edgeStyle=orthogonalEdgeStyle;html=1;entryX=0;entryY=0.5;entryDx=0;entryDy=0;" edge="1" parent="1" source="72" target="105">
          <mxGeometry relative="1" as="geometry" />
        </mxCell>
        <mxCell id="72" value="&lt;span style=&quot;caret-color: rgb(0, 0, 0); color: rgb(0, 0, 0); text-align: start;&quot;&gt;&lt;/span&gt;&lt;span style=&quot;caret-color: rgb(0, 0, 0); color: rgb(0, 0, 0); text-align: start;&quot;&gt;&lt;/span&gt;&lt;span style=&quot;caret-color: rgb(0, 0, 0); color: rgb(0, 0, 0); text-align: start;&quot;&gt;&lt;/span&gt;&lt;span style=&quot;caret-color: rgb(0, 0, 0); color: rgb(0, 0, 0); text-align: start; white-space-collapse: preserve;&quot;&gt;Billing Type&lt;/span&gt;" style="whiteSpace=wrap;html=1;" vertex="1" parent="1">
          <mxGeometry x="1220" y="440" width="120" height="60" as="geometry" />
        </mxCell>
        <mxCell id="97" value="" style="edgeStyle=orthogonalEdgeStyle;html=1;" edge="1" parent="1" source="74" target="96">
          <mxGeometry relative="1" as="geometry" />
        </mxCell>
        <mxCell id="98" value="" style="edgeStyle=orthogonalEdgeStyle;html=1;" edge="1" parent="1" source="74" target="96">
          <mxGeometry relative="1" as="geometry" />
        </mxCell>
        <mxCell id="100" style="edgeStyle=orthogonalEdgeStyle;html=1;" edge="1" parent="1" source="74" target="99">
          <mxGeometry relative="1" as="geometry" />
        </mxCell>
        <mxCell id="74" value="&lt;span style=&quot;caret-color: rgb(0, 0, 0); color: rgb(0, 0, 0); text-align: start;&quot;&gt;&lt;/span&gt;&lt;span style=&quot;caret-color: rgb(0, 0, 0); color: rgb(0, 0, 0); text-align: start;&quot;&gt;&lt;/span&gt;&lt;span style=&quot;caret-color: rgb(0, 0, 0); color: rgb(0, 0, 0); text-align: start;&quot;&gt;&lt;/span&gt;&lt;span style=&quot;caret-color: rgb(0, 0, 0); color: rgb(0, 0, 0); text-align: start; white-space-collapse: preserve;&quot;&gt;Fill in Client’s Instructions&lt;/span&gt;" style="rhombus;whiteSpace=wrap;html=1;fillColor=#fad7ac;strokeColor=#b46504;" vertex="1" parent="1">
          <mxGeometry x="1390" y="210" width="80" height="80" as="geometry" />
        </mxCell>
        <mxCell id="78" value="Cancel" style="ellipse;whiteSpace=wrap;html=1;" vertex="1" parent="1">
          <mxGeometry x="1520" width="70" height="70" as="geometry" />
        </mxCell>
        <mxCell id="85" value="Save" style="ellipse;whiteSpace=wrap;html=1;" vertex="1" parent="1">
          <mxGeometry x="1520" y="90" width="70" height="70" as="geometry" />
        </mxCell>
        <mxCell id="96" value="&lt;span style=&quot;color: rgb(0, 0, 0);&quot;&gt;Cancel&lt;/span&gt;" style="ellipse;whiteSpace=wrap;html=1;" vertex="1" parent="1">
          <mxGeometry x="1520" y="170" width="70" height="70" as="geometry" />
        </mxCell>
        <mxCell id="99" value="&lt;span style=&quot;color: rgb(0, 0, 0);&quot;&gt;Save&lt;/span&gt;" style="ellipse;whiteSpace=wrap;html=1;" vertex="1" parent="1">
          <mxGeometry x="1520" y="260" width="70" height="70" as="geometry" />
        </mxCell>
        <mxCell id="101" value="&lt;span style=&quot;caret-color: rgb(0, 0, 0); color: rgb(0, 0, 0); text-align: start;&quot;&gt;&lt;/span&gt;&lt;span style=&quot;caret-color: rgb(0, 0, 0); color: rgb(0, 0, 0); text-align: start;&quot;&gt;&lt;/span&gt;&lt;span style=&quot;caret-color: rgb(0, 0, 0); color: rgb(0, 0, 0); text-align: start; white-space-collapse: preserve;&quot;&gt;Invoice&lt;/span&gt;" style="ellipse;whiteSpace=wrap;html=1;" vertex="1" parent="1">
          <mxGeometry x="1390" y="350" width="70" height="70" as="geometry" />
        </mxCell>
        <mxCell id="105" value="&lt;span style=&quot;caret-color: rgb(0, 0, 0); color: rgb(0, 0, 0); text-align: start;&quot;&gt;&lt;/span&gt;&lt;span style=&quot;caret-color: rgb(0, 0, 0); color: rgb(0, 0, 0); text-align: start;&quot;&gt;&lt;/span&gt;&lt;span style=&quot;caret-color: rgb(0, 0, 0); color: rgb(0, 0, 0); text-align: start; white-space-collapse: preserve;&quot;&gt;Pre-paid&lt;/span&gt;" style="ellipse;whiteSpace=wrap;html=1;" vertex="1" parent="1">
          <mxGeometry x="1390" y="435" width="70" height="70" as="geometry" />
        </mxCell>
        <mxCell id="106" value="&lt;span style=&quot;caret-color: rgb(0, 0, 0); color: rgb(0, 0, 0); text-align: start;&quot;&gt;&lt;/span&gt;&lt;span style=&quot;caret-color: rgb(0, 0, 0); color: rgb(0, 0, 0); text-align: start;&quot;&gt;&lt;/span&gt;&lt;span style=&quot;caret-color: rgb(0, 0, 0); color: rgb(0, 0, 0); text-align: start; white-space-collapse: preserve;&quot;&gt;0-Balance Invoice&lt;/span&gt;" style="ellipse;whiteSpace=wrap;html=1;" vertex="1" parent="1">
          <mxGeometry x="1390" y="520" width="70" height="70" as="geometry" />
        </mxCell>
        <mxCell id="121" value="" style="edgeStyle=orthogonalEdgeStyle;html=1;" edge="1" parent="1" source="116" target="120">
          <mxGeometry relative="1" as="geometry" />
        </mxCell>
        <mxCell id="122" value="" style="edgeStyle=orthogonalEdgeStyle;html=1;" edge="1" parent="1" source="116" target="120">
          <mxGeometry relative="1" as="geometry" />
        </mxCell>
        <mxCell id="124" style="edgeStyle=orthogonalEdgeStyle;html=1;entryX=0;entryY=0.5;entryDx=0;entryDy=0;" edge="1" parent="1" source="116" target="123">
          <mxGeometry relative="1" as="geometry" />
        </mxCell>
        <mxCell id="116" value="&lt;span style=&quot;caret-color: rgb(0, 0, 0); color: rgb(0, 0, 0); text-align: start;&quot;&gt;&lt;/span&gt;&lt;span style=&quot;caret-color: rgb(0, 0, 0); color: rgb(0, 0, 0); text-align: start;&quot;&gt;&lt;/span&gt;&lt;span style=&quot;caret-color: rgb(0, 0, 0); color: rgb(0, 0, 0); text-align: start; white-space-collapse: preserve;&quot;&gt;View Full List&lt;/span&gt;" style="rounded=0;whiteSpace=wrap;html=1;" vertex="1" parent="1">
          <mxGeometry x="1050" y="725" width="120" height="60" as="geometry" />
        </mxCell>
        <mxCell id="120" value="&lt;span style=&quot;caret-color: rgb(0, 0, 0); color: rgb(0, 0, 0); text-align: start;&quot;&gt;&lt;/span&gt;&lt;span style=&quot;caret-color: rgb(0, 0, 0); color: rgb(0, 0, 0); text-align: start;&quot;&gt;&lt;/span&gt;&lt;span style=&quot;caret-color: rgb(0, 0, 0); color: rgb(0, 0, 0); text-align: start; white-space-collapse: preserve;&quot;&gt;Print&lt;/span&gt;" style="rounded=0;whiteSpace=wrap;html=1;" vertex="1" parent="1">
          <mxGeometry x="1220" y="680" width="120" height="60" as="geometry" />
        </mxCell>
        <mxCell id="126" value="" style="edgeStyle=orthogonalEdgeStyle;html=1;" edge="1" parent="1" source="123" target="125">
          <mxGeometry relative="1" as="geometry" />
        </mxCell>
        <mxCell id="123" value="&lt;span style=&quot;caret-color: rgb(0, 0, 0); color: rgb(0, 0, 0); text-align: start;&quot;&gt;&lt;/span&gt;&lt;span style=&quot;caret-color: rgb(0, 0, 0); color: rgb(0, 0, 0); text-align: start;&quot;&gt;&lt;/span&gt;&lt;span style=&quot;caret-color: rgb(0, 0, 0); color: rgb(0, 0, 0); text-align: start; white-space-collapse: preserve;&quot;&gt;Add Contact&lt;/span&gt;&lt;span style=&quot;caret-color: rgb(0, 0, 0); color: rgb(0, 0, 0); text-align: start;&quot;&gt;&lt;/span&gt;" style="rounded=0;whiteSpace=wrap;html=1;" vertex="1" parent="1">
          <mxGeometry x="1220" y="767" width="120" height="60" as="geometry" />
        </mxCell>
        <mxCell id="128" value="" style="edgeStyle=orthogonalEdgeStyle;html=1;" edge="1" parent="1" source="125">
          <mxGeometry relative="1" as="geometry">
            <mxPoint x="1560" y="797" as="targetPoint" />
          </mxGeometry>
        </mxCell>
        <mxCell id="125" value="&lt;span style=&quot;caret-color: rgb(0, 0, 0); color: rgb(0, 0, 0); text-align: start;&quot;&gt;&lt;/span&gt;&lt;span style=&quot;caret-color: rgb(0, 0, 0); color: rgb(0, 0, 0); text-align: start;&quot;&gt;&lt;/span&gt;&lt;span style=&quot;caret-color: rgb(0, 0, 0); color: rgb(0, 0, 0); text-align: start;&quot;&gt;&lt;/span&gt;&lt;span style=&quot;caret-color: rgb(0, 0, 0); color: rgb(0, 0, 0); text-align: start; white-space-collapse: preserve;&quot;&gt;(2)&lt;br&gt;Employees/Contact&lt;/span&gt;" style="rounded=0;whiteSpace=wrap;html=1;" vertex="1" parent="1">
          <mxGeometry x="1390" y="767" width="120" height="60" as="geometry" />
        </mxCell>
        <mxCell id="165" value="" style="group" vertex="1" connectable="0" parent="1">
          <mxGeometry x="1050" y="600" width="290" height="60" as="geometry" />
        </mxCell>
        <mxCell id="119" value="" style="edgeStyle=orthogonalEdgeStyle;html=1;" edge="1" parent="165" source="113" target="118">
          <mxGeometry relative="1" as="geometry" />
        </mxCell>
        <mxCell id="113" value="&lt;span style=&quot;caret-color: rgb(0, 0, 0); color: rgb(0, 0, 0); text-align: start;&quot;&gt;&lt;/span&gt;&lt;span style=&quot;caret-color: rgb(0, 0, 0); color: rgb(0, 0, 0); text-align: start;&quot;&gt;&lt;/span&gt;&lt;span style=&quot;caret-color: rgb(0, 0, 0); color: rgb(0, 0, 0); text-align: start; white-space-collapse: preserve;&quot;&gt;Edit Contact List&lt;/span&gt;" style="rounded=0;whiteSpace=wrap;html=1;" vertex="1" parent="165">
          <mxGeometry width="120" height="60" as="geometry" />
        </mxCell>
        <mxCell id="118" value="&lt;span style=&quot;caret-color: rgb(0, 0, 0); color: rgb(0, 0, 0); text-align: start;&quot;&gt;&lt;/span&gt;&lt;span style=&quot;caret-color: rgb(0, 0, 0); color: rgb(0, 0, 0); text-align: start;&quot;&gt;&lt;/span&gt;&lt;span style=&quot;caret-color: rgb(0, 0, 0); color: rgb(0, 0, 0); text-align: start;&quot;&gt;&lt;/span&gt;&lt;span style=&quot;caret-color: rgb(0, 0, 0); color: rgb(0, 0, 0); text-align: start; white-space-collapse: preserve;&quot;&gt;(2)&lt;br&gt;Employees/Contact&lt;/span&gt;" style="rounded=0;whiteSpace=wrap;html=1;" vertex="1" parent="165">
          <mxGeometry x="170" width="120" height="60" as="geometry" />
        </mxCell>
        <mxCell id="177" value="" style="edgeStyle=orthogonalEdgeStyle;html=1;" edge="1" parent="1" source="174" target="176">
          <mxGeometry relative="1" as="geometry" />
        </mxCell>
        <mxCell id="174" value="&lt;span style=&quot;caret-color: rgb(0, 0, 0); color: rgb(0, 0, 0); text-align: start;&quot;&gt;&lt;/span&gt;&lt;span style=&quot;caret-color: rgb(0, 0, 0); color: rgb(0, 0, 0); text-align: start;&quot;&gt;&lt;/span&gt;&lt;span style=&quot;caret-color: rgb(0, 0, 0); color: rgb(0, 0, 0); text-align: start; white-space-collapse: preserve;&quot;&gt;Edit Data Exchange&lt;/span&gt;" style="rounded=0;whiteSpace=wrap;html=1;" vertex="1" parent="1">
          <mxGeometry x="1050" y="940" width="120" height="60" as="geometry" />
        </mxCell>
        <mxCell id="185" style="edgeStyle=orthogonalEdgeStyle;html=1;exitX=1;exitY=0.5;exitDx=0;exitDy=0;" edge="1" parent="1" source="176" target="181">
          <mxGeometry relative="1" as="geometry" />
        </mxCell>
        <mxCell id="176" value="&lt;span style=&quot;caret-color: rgb(0, 0, 0); color: rgb(0, 0, 0); text-align: start;&quot;&gt;&lt;/span&gt;&lt;span style=&quot;caret-color: rgb(0, 0, 0); color: rgb(0, 0, 0); text-align: start;&quot;&gt;&lt;/span&gt;&lt;span style=&quot;caret-color: rgb(0, 0, 0); color: rgb(0, 0, 0); text-align: start; white-space-collapse: preserve;&quot;&gt;(3)&lt;br&gt;Data Exchange Contacts&lt;/span&gt;" style="rounded=0;whiteSpace=wrap;html=1;" vertex="1" parent="1">
          <mxGeometry x="1220" y="940" width="120" height="60" as="geometry" />
        </mxCell>
        <mxCell id="130" style="edgeStyle=orthogonalEdgeStyle;html=1;entryX=0;entryY=0.5;entryDx=0;entryDy=0;" edge="1" parent="1" source="118" target="129">
          <mxGeometry relative="1" as="geometry" />
        </mxCell>
        <mxCell id="146" style="edgeStyle=orthogonalEdgeStyle;html=1;entryX=0;entryY=0.5;entryDx=0;entryDy=0;" edge="1" parent="1" source="129" target="142">
          <mxGeometry relative="1" as="geometry" />
        </mxCell>
        <mxCell id="148" style="edgeStyle=orthogonalEdgeStyle;html=1;exitX=1;exitY=0.5;exitDx=0;exitDy=0;entryX=0;entryY=0.5;entryDx=0;entryDy=0;" edge="1" parent="1" source="129" target="145">
          <mxGeometry relative="1" as="geometry" />
        </mxCell>
        <mxCell id="129" value="&lt;span style=&quot;caret-color: rgb(0, 0, 0); color: rgb(0, 0, 0); text-align: start;&quot;&gt;&lt;/span&gt;&lt;span style=&quot;caret-color: rgb(0, 0, 0); color: rgb(0, 0, 0); text-align: start;&quot;&gt;&lt;/span&gt;&lt;span style=&quot;caret-color: rgb(0, 0, 0); color: rgb(0, 0, 0); text-align: start; white-space-collapse: preserve;&quot;&gt;Fill in Employees&lt;/span&gt;&lt;div&gt;&lt;span style=&quot;caret-color: rgb(0, 0, 0); color: rgb(0, 0, 0); text-align: start; white-space-collapse: preserve;&quot;&gt;/Contact&lt;/span&gt;&lt;/div&gt;" style="rhombus;whiteSpace=wrap;html=1;rounded=0;fillColor=#fad7ac;strokeColor=#b46504;" vertex="1" parent="1">
          <mxGeometry x="1560" y="590" width="80" height="80" as="geometry" />
        </mxCell>
        <mxCell id="142" value="&lt;span style=&quot;color: rgb(0, 0, 0);&quot;&gt;Cancel&lt;/span&gt;" style="ellipse;whiteSpace=wrap;html=1;" vertex="1" parent="1">
          <mxGeometry x="1684" y="550" width="70" height="70" as="geometry" />
        </mxCell>
        <mxCell id="145" value="&lt;span style=&quot;color: rgb(0, 0, 0);&quot;&gt;Save&lt;/span&gt;" style="ellipse;whiteSpace=wrap;html=1;" vertex="1" parent="1">
          <mxGeometry x="1684" y="640" width="70" height="70" as="geometry" />
        </mxCell>
        <mxCell id="160" style="edgeStyle=orthogonalEdgeStyle;html=1;entryX=0;entryY=0.5;entryDx=0;entryDy=0;" edge="1" parent="1" source="162" target="163">
          <mxGeometry relative="1" as="geometry" />
        </mxCell>
        <mxCell id="161" style="edgeStyle=orthogonalEdgeStyle;html=1;exitX=1;exitY=0.5;exitDx=0;exitDy=0;entryX=0;entryY=0.5;entryDx=0;entryDy=0;" edge="1" parent="1" source="162" target="164">
          <mxGeometry relative="1" as="geometry" />
        </mxCell>
        <mxCell id="162" value="&lt;span style=&quot;caret-color: rgb(0, 0, 0); color: rgb(0, 0, 0); text-align: start;&quot;&gt;&lt;/span&gt;&lt;span style=&quot;caret-color: rgb(0, 0, 0); color: rgb(0, 0, 0); text-align: start;&quot;&gt;&lt;/span&gt;&lt;span style=&quot;caret-color: rgb(0, 0, 0); color: rgb(0, 0, 0); text-align: start; white-space-collapse: preserve;&quot;&gt;Fill in Employees&lt;/span&gt;&lt;div&gt;&lt;span style=&quot;caret-color: rgb(0, 0, 0); color: rgb(0, 0, 0); text-align: start; white-space-collapse: preserve;&quot;&gt;/Contact&lt;/span&gt;&lt;/div&gt;" style="rhombus;whiteSpace=wrap;html=1;rounded=0;fillColor=#fad7ac;strokeColor=#b46504;" vertex="1" parent="1">
          <mxGeometry x="1560" y="757" width="80" height="80" as="geometry" />
        </mxCell>
        <mxCell id="163" value="&lt;span style=&quot;color: rgb(0, 0, 0);&quot;&gt;Cancel&lt;/span&gt;" style="ellipse;whiteSpace=wrap;html=1;" vertex="1" parent="1">
          <mxGeometry x="1684" y="715" width="70" height="70" as="geometry" />
        </mxCell>
        <mxCell id="164" value="&lt;span style=&quot;color: rgb(0, 0, 0);&quot;&gt;Save&lt;/span&gt;" style="ellipse;whiteSpace=wrap;html=1;" vertex="1" parent="1">
          <mxGeometry x="1684" y="807" width="70" height="70" as="geometry" />
        </mxCell>
        <mxCell id="179" style="edgeStyle=orthogonalEdgeStyle;html=1;entryX=0;entryY=0.5;entryDx=0;entryDy=0;" edge="1" parent="1" source="181" target="182">
          <mxGeometry relative="1" as="geometry" />
        </mxCell>
        <mxCell id="180" style="edgeStyle=orthogonalEdgeStyle;html=1;exitX=1;exitY=0.5;exitDx=0;exitDy=0;entryX=0;entryY=0.5;entryDx=0;entryDy=0;" edge="1" parent="1" source="181" target="183">
          <mxGeometry relative="1" as="geometry" />
        </mxCell>
        <mxCell id="181" value="&lt;span style=&quot;caret-color: rgb(0, 0, 0); color: rgb(0, 0, 0); text-align: start;&quot;&gt;&lt;/span&gt;&lt;span style=&quot;caret-color: rgb(0, 0, 0); color: rgb(0, 0, 0); text-align: start;&quot;&gt;&lt;/span&gt;&lt;span style=&quot;caret-color: rgb(0, 0, 0); color: rgb(0, 0, 0); text-align: start; white-space-collapse: preserve;&quot;&gt;Fill in Employees&lt;/span&gt;&lt;div&gt;&lt;span style=&quot;caret-color: rgb(0, 0, 0); color: rgb(0, 0, 0); text-align: start; white-space-collapse: preserve;&quot;&gt;/Contact&lt;/span&gt;&lt;/div&gt;" style="rhombus;whiteSpace=wrap;html=1;rounded=0;fillColor=#fad7ac;strokeColor=#b46504;" vertex="1" parent="1">
          <mxGeometry x="1560" y="930" width="80" height="80" as="geometry" />
        </mxCell>
        <mxCell id="182" value="&lt;span style=&quot;color: rgb(0, 0, 0);&quot;&gt;Cancel&lt;/span&gt;" style="ellipse;whiteSpace=wrap;html=1;" vertex="1" parent="1">
          <mxGeometry x="1684" y="890" width="70" height="70" as="geometry" />
        </mxCell>
        <mxCell id="183" value="&lt;span style=&quot;color: rgb(0, 0, 0);&quot;&gt;Save&lt;/span&gt;" style="ellipse;whiteSpace=wrap;html=1;" vertex="1" parent="1">
          <mxGeometry x="1684" y="980" width="70" height="70" as="geometry" />
        </mxCell>
        <mxCell id="350" style="edgeStyle=orthogonalEdgeStyle;html=1;entryX=0;entryY=0.5;entryDx=0;entryDy=0;" edge="1" parent="1" source="339" target="316">
          <mxGeometry relative="1" as="geometry" />
        </mxCell>
        <mxCell id="351" value="" style="edgeStyle=orthogonalEdgeStyle;html=1;" edge="1" parent="1" source="339" target="318">
          <mxGeometry relative="1" as="geometry" />
        </mxCell>
        <mxCell id="355" style="edgeStyle=orthogonalEdgeStyle;html=1;entryX=0;entryY=0.5;entryDx=0;entryDy=0;" edge="1" parent="1" source="339" target="321">
          <mxGeometry relative="1" as="geometry" />
        </mxCell>
        <mxCell id="360" style="edgeStyle=orthogonalEdgeStyle;html=1;entryX=0;entryY=0.5;entryDx=0;entryDy=0;" edge="1" parent="1" source="339" target="314">
          <mxGeometry relative="1" as="geometry">
            <mxPoint x="620" y="2180" as="targetPoint" />
          </mxGeometry>
        </mxCell>
        <mxCell id="365" style="edgeStyle=orthogonalEdgeStyle;html=1;entryX=0.5;entryY=0;entryDx=0;entryDy=0;" edge="1" parent="1" source="339" target="364">
          <mxGeometry relative="1" as="geometry" />
        </mxCell>
        <mxCell id="339" value="&lt;span style=&quot;caret-color: rgb(0, 0, 0); color: rgb(0, 0, 0); text-align: start;&quot;&gt;&lt;/span&gt;&lt;span style=&quot;caret-color: rgb(0, 0, 0); color: rgb(0, 0, 0); text-align: start; white-space-collapse: preserve;&quot;&gt;&lt;span style=&quot;color: rgb(0, 0, 0); white-space-collapse: collapse;&quot;&gt;&lt;/span&gt;&lt;span style=&quot;color: rgb(0, 0, 0); white-space-collapse: collapse;&quot;&gt;&lt;/span&gt;&lt;span style=&quot;color: rgb(0, 0, 0);&quot;&gt;(2)&lt;br&gt;Employees/Contact&lt;/span&gt;&lt;/span&gt;" style="rounded=0;whiteSpace=wrap;html=1;" vertex="1" parent="1">
          <mxGeometry x="480" y="2050" width="120" height="60" as="geometry" />
        </mxCell>
        <mxCell id="340" value="" style="edgeStyle=orthogonalEdgeStyle;html=1;" edge="1" parent="1" source="228" target="339">
          <mxGeometry relative="1" as="geometry" />
        </mxCell>
        <mxCell id="342" style="edgeStyle=orthogonalEdgeStyle;html=1;entryX=0;entryY=0.5;entryDx=0;entryDy=0;" edge="1" parent="1" source="314" target="341">
          <mxGeometry relative="1" as="geometry" />
        </mxCell>
        <mxCell id="314" value="&lt;span style=&quot;caret-color: rgb(0, 0, 0); color: rgb(0, 0, 0); text-align: start;&quot;&gt;&lt;/span&gt;&lt;span style=&quot;caret-color: rgb(0, 0, 0); color: rgb(0, 0, 0); text-align: start;&quot;&gt;&lt;/span&gt;&lt;span style=&quot;caret-color: rgb(0, 0, 0); color: rgb(0, 0, 0); text-align: start;&quot;&gt;&lt;/span&gt;&lt;span style=&quot;caret-color: rgb(0, 0, 0); color: rgb(0, 0, 0); text-align: start; white-space-collapse: preserve;&quot;&gt;Email&lt;/span&gt;" style="rounded=0;whiteSpace=wrap;html=1;" vertex="1" parent="1">
          <mxGeometry x="650" y="2330" width="120" height="60" as="geometry" />
        </mxCell>
        <mxCell id="352" style="edgeStyle=orthogonalEdgeStyle;html=1;entryX=0;entryY=0.5;entryDx=0;entryDy=0;" edge="1" parent="1" source="318" target="334">
          <mxGeometry relative="1" as="geometry" />
        </mxCell>
        <mxCell id="318" value="&lt;span style=&quot;caret-color: rgb(0, 0, 0); color: rgb(0, 0, 0); text-align: start;&quot;&gt;&lt;/span&gt;&lt;span style=&quot;caret-color: rgb(0, 0, 0); color: rgb(0, 0, 0); text-align: start;&quot;&gt;&lt;/span&gt;&lt;span style=&quot;caret-color: rgb(0, 0, 0); color: rgb(0, 0, 0); text-align: start;&quot;&gt;&lt;/span&gt;&lt;span style=&quot;caret-color: rgb(0, 0, 0); color: rgb(0, 0, 0); text-align: start; white-space-collapse: preserve;&quot;&gt;Last Name&lt;/span&gt;" style="rounded=0;whiteSpace=wrap;html=1;" vertex="1" parent="1">
          <mxGeometry x="650" y="2050" width="120" height="60" as="geometry" />
        </mxCell>
        <mxCell id="336" value="&lt;span style=&quot;caret-color: rgb(0, 0, 0); color: rgb(0, 0, 0); text-align: start;&quot;&gt;&lt;/span&gt;&lt;span style=&quot;caret-color: rgb(0, 0, 0); color: rgb(0, 0, 0); text-align: start; white-space-collapse: preserve;&quot;&gt;&lt;span style=&quot;color: rgb(0, 0, 0);&quot;&gt;Email&lt;/span&gt; is Required&lt;/span&gt;" style="whiteSpace=wrap;html=1;rounded=0;" vertex="1" parent="1">
          <mxGeometry x="1169" y="2330" width="120" height="60" as="geometry" />
        </mxCell>
        <mxCell id="337" value="&lt;span style=&quot;caret-color: rgb(0, 0, 0); color: rgb(0, 0, 0); text-align: start;&quot;&gt;&lt;/span&gt;&lt;span style=&quot;caret-color: rgb(0, 0, 0); color: rgb(0, 0, 0); text-align: start;&quot;&gt;&lt;/span&gt;&lt;span style=&quot;caret-color: rgb(0, 0, 0); color: rgb(0, 0, 0); text-align: start;&quot;&gt;&lt;/span&gt;&lt;span style=&quot;caret-color: rgb(0, 0, 0); color: rgb(0, 0, 0); text-align: start; white-space-collapse: preserve;&quot;&gt;Last Name is Required&lt;/span&gt;" style="whiteSpace=wrap;html=1;rounded=0;" vertex="1" parent="1">
          <mxGeometry x="1169" y="2050" width="120" height="60" as="geometry" />
        </mxCell>
        <mxCell id="343" style="edgeStyle=orthogonalEdgeStyle;html=1;entryX=0;entryY=0.5;entryDx=0;entryDy=0;" edge="1" parent="1" source="341" target="336">
          <mxGeometry relative="1" as="geometry" />
        </mxCell>
        <mxCell id="363" value="&lt;span style=&quot;color: rgb(0, 0, 0);&quot;&gt;Error Message&lt;/span&gt;" style="edgeLabel;html=1;align=center;verticalAlign=middle;resizable=0;points=[];" vertex="1" connectable="0" parent="343">
          <mxGeometry x="-0.0718" relative="1" as="geometry">
            <mxPoint as="offset" />
          </mxGeometry>
        </mxCell>
        <mxCell id="341" value="&lt;span style=&quot;caret-color: rgb(0, 0, 0); color: rgb(0, 0, 0); text-align: start;&quot;&gt;&lt;/span&gt;&lt;span style=&quot;caret-color: rgb(0, 0, 0); color: rgb(0, 0, 0); text-align: start;&quot;&gt;&lt;/span&gt;&lt;span style=&quot;caret-color: rgb(0, 0, 0); color: rgb(0, 0, 0); text-align: start;&quot;&gt;&lt;/span&gt;&lt;span style=&quot;caret-color: rgb(0, 0, 0); color: rgb(0, 0, 0); text-align: start; white-space-collapse: preserve;&quot;&gt;Mandatory field is missing?&lt;/span&gt;" style="rhombus;whiteSpace=wrap;html=1;rounded=0;fillColor=#fad7ac;strokeColor=#b46504;" vertex="1" parent="1">
          <mxGeometry x="970" y="2320" width="80" height="80" as="geometry" />
        </mxCell>
        <mxCell id="344" value="" style="group" vertex="1" connectable="0" parent="1">
          <mxGeometry x="651" y="2140" width="639" height="160" as="geometry" />
        </mxCell>
        <mxCell id="319" style="edgeStyle=orthogonalEdgeStyle;html=1;entryX=0;entryY=0.5;entryDx=0;entryDy=0;" edge="1" source="321" target="324" parent="344">
          <mxGeometry relative="1" as="geometry" />
        </mxCell>
        <mxCell id="320" style="edgeStyle=orthogonalEdgeStyle;html=1;entryX=0;entryY=0.5;entryDx=0;entryDy=0;" edge="1" source="321" target="325" parent="344">
          <mxGeometry relative="1" as="geometry" />
        </mxCell>
        <mxCell id="322" style="edgeStyle=orthogonalEdgeStyle;html=1;entryX=0.094;entryY=0.525;entryDx=0;entryDy=0;entryPerimeter=0;" edge="1" source="324" target="330" parent="344">
          <mxGeometry relative="1" as="geometry" />
        </mxCell>
        <mxCell id="323" style="edgeStyle=orthogonalEdgeStyle;html=1;entryX=0.094;entryY=0.525;entryDx=0;entryDy=0;entryPerimeter=0;" edge="1" source="325" target="330" parent="344">
          <mxGeometry relative="1" as="geometry" />
        </mxCell>
        <mxCell id="321" value="&lt;span style=&quot;caret-color: rgb(0, 0, 0); color: rgb(0, 0, 0); text-align: start;&quot;&gt;&lt;/span&gt;&lt;span style=&quot;caret-color: rgb(0, 0, 0); color: rgb(0, 0, 0); text-align: start;&quot;&gt;&lt;/span&gt;&lt;span style=&quot;caret-color: rgb(0, 0, 0); color: rgb(0, 0, 0); text-align: start;&quot;&gt;&lt;/span&gt;&lt;span style=&quot;caret-color: rgb(0, 0, 0); color: rgb(0, 0, 0); text-align: start; white-space-collapse: preserve;&quot;&gt;Employee Type&lt;/span&gt;" style="rounded=0;whiteSpace=wrap;html=1;" vertex="1" parent="344">
          <mxGeometry y="50" width="120" height="60" as="geometry" />
        </mxCell>
        <mxCell id="324" value="&lt;span style=&quot;caret-color: rgb(0, 0, 0); color: rgb(0, 0, 0); text-align: start;&quot;&gt;&lt;/span&gt;&lt;span style=&quot;caret-color: rgb(0, 0, 0); color: rgb(0, 0, 0); text-align: start;&quot;&gt;&lt;/span&gt;&lt;span style=&quot;caret-color: rgb(0, 0, 0); color: rgb(0, 0, 0); text-align: start; white-space-collapse: preserve;&quot;&gt;Lawyer&lt;/span&gt;" style="ellipse;whiteSpace=wrap;html=1;" vertex="1" parent="344">
          <mxGeometry x="190" width="70" height="70" as="geometry" />
        </mxCell>
        <mxCell id="325" value="&lt;span style=&quot;caret-color: rgb(0, 0, 0); color: rgb(0, 0, 0); text-align: start;&quot;&gt;&lt;/span&gt;&lt;span style=&quot;caret-color: rgb(0, 0, 0); color: rgb(0, 0, 0); text-align: start;&quot;&gt;&lt;/span&gt;&lt;span style=&quot;caret-color: rgb(0, 0, 0); color: rgb(0, 0, 0); text-align: start; white-space-collapse: preserve;&quot;&gt;Staff&lt;/span&gt;" style="ellipse;whiteSpace=wrap;html=1;" vertex="1" parent="344">
          <mxGeometry x="190" y="90" width="70" height="70" as="geometry" />
        </mxCell>
        <mxCell id="326" value="" style="group" vertex="1" connectable="0" parent="344">
          <mxGeometry x="320" y="40" width="319" height="80" as="geometry" />
        </mxCell>
        <mxCell id="327" value="&lt;span style=&quot;caret-color: rgb(0, 0, 0); color: rgb(0, 0, 0); text-align: start;&quot;&gt;&lt;/span&gt;&lt;span style=&quot;caret-color: rgb(0, 0, 0); color: rgb(0, 0, 0); text-align: start; white-space-collapse: preserve;&quot;&gt;&lt;span style=&quot;color: rgb(0, 0, 0);&quot;&gt;Employee Type&lt;/span&gt; is Required&lt;/span&gt;" style="whiteSpace=wrap;html=1;rounded=0;" vertex="1" parent="326">
          <mxGeometry x="199" y="10" width="120" height="60" as="geometry" />
        </mxCell>
        <mxCell id="328" value="" style="edgeStyle=orthogonalEdgeStyle;html=1;" edge="1" parent="326" source="330" target="327">
          <mxGeometry relative="1" as="geometry" />
        </mxCell>
        <mxCell id="329" value="Error Message" style="edgeLabel;html=1;align=center;verticalAlign=middle;resizable=0;points=[];" vertex="1" connectable="0" parent="328">
          <mxGeometry x="-0.0976" y="2" relative="1" as="geometry">
            <mxPoint as="offset" />
          </mxGeometry>
        </mxCell>
        <mxCell id="330" value="&lt;span style=&quot;caret-color: rgb(0, 0, 0); color: rgb(0, 0, 0); text-align: start;&quot;&gt;&lt;/span&gt;&lt;span style=&quot;caret-color: rgb(0, 0, 0); color: rgb(0, 0, 0); text-align: start;&quot;&gt;&lt;/span&gt;&lt;span style=&quot;caret-color: rgb(0, 0, 0); color: rgb(0, 0, 0); text-align: start;&quot;&gt;&lt;/span&gt;&lt;span style=&quot;caret-color: rgb(0, 0, 0); color: rgb(0, 0, 0); text-align: start; white-space-collapse: preserve;&quot;&gt;Mandatory field is missing?&lt;/span&gt;" style="rhombus;whiteSpace=wrap;html=1;rounded=0;fillColor=#fad7ac;strokeColor=#b46504;" vertex="1" parent="326">
          <mxGeometry width="80" height="80" as="geometry" />
        </mxCell>
        <mxCell id="347" value="" style="group" vertex="1" connectable="0" parent="1">
          <mxGeometry x="650" y="1910" width="639" height="80" as="geometry" />
        </mxCell>
        <mxCell id="346" value="" style="group" vertex="1" connectable="0" parent="347">
          <mxGeometry y="10" width="639" height="60" as="geometry" />
        </mxCell>
        <mxCell id="316" value="&lt;span style=&quot;caret-color: rgb(0, 0, 0); color: rgb(0, 0, 0); text-align: start;&quot;&gt;&lt;/span&gt;&lt;span style=&quot;caret-color: rgb(0, 0, 0); color: rgb(0, 0, 0); text-align: start;&quot;&gt;&lt;/span&gt;&lt;span style=&quot;caret-color: rgb(0, 0, 0); color: rgb(0, 0, 0); text-align: start;&quot;&gt;&lt;/span&gt;&lt;span style=&quot;caret-color: rgb(0, 0, 0); color: rgb(0, 0, 0); text-align: start; white-space-collapse: preserve;&quot;&gt;First Name&lt;/span&gt;" style="rounded=0;whiteSpace=wrap;html=1;" vertex="1" parent="346">
          <mxGeometry width="120" height="60" as="geometry" />
        </mxCell>
        <mxCell id="331" value="&lt;span style=&quot;caret-color: rgb(0, 0, 0); color: rgb(0, 0, 0); text-align: start;&quot;&gt;&lt;/span&gt;&lt;span style=&quot;caret-color: rgb(0, 0, 0); color: rgb(0, 0, 0); text-align: start;&quot;&gt;&lt;/span&gt;&lt;span style=&quot;caret-color: rgb(0, 0, 0); color: rgb(0, 0, 0); text-align: start;&quot;&gt;&lt;/span&gt;&lt;span style=&quot;caret-color: rgb(0, 0, 0); color: rgb(0, 0, 0); text-align: start; white-space-collapse: preserve;&quot;&gt;First Name is Required&lt;/span&gt;" style="whiteSpace=wrap;html=1;rounded=0;" vertex="1" parent="346">
          <mxGeometry x="519" width="120" height="60" as="geometry" />
        </mxCell>
        <mxCell id="353" style="edgeStyle=orthogonalEdgeStyle;html=1;entryX=0;entryY=0.5;entryDx=0;entryDy=0;" edge="1" parent="1" source="334" target="337">
          <mxGeometry relative="1" as="geometry" />
        </mxCell>
        <mxCell id="334" value="&lt;span style=&quot;caret-color: rgb(0, 0, 0); color: rgb(0, 0, 0); text-align: start;&quot;&gt;&lt;/span&gt;&lt;span style=&quot;caret-color: rgb(0, 0, 0); color: rgb(0, 0, 0); text-align: start;&quot;&gt;&lt;/span&gt;&lt;span style=&quot;caret-color: rgb(0, 0, 0); color: rgb(0, 0, 0); text-align: start;&quot;&gt;&lt;/span&gt;&lt;span style=&quot;caret-color: rgb(0, 0, 0); color: rgb(0, 0, 0); text-align: start; white-space-collapse: preserve;&quot;&gt;Mandatory field is missing?&lt;/span&gt;" style="rhombus;whiteSpace=wrap;html=1;rounded=0;fillColor=#fad7ac;strokeColor=#b46504;" vertex="1" parent="1">
          <mxGeometry x="970" y="1980" width="80" height="80" as="geometry" />
        </mxCell>
        <mxCell id="345" style="edgeStyle=orthogonalEdgeStyle;html=1;entryX=0;entryY=0.5;entryDx=0;entryDy=0;" edge="1" parent="1" source="316" target="334">
          <mxGeometry relative="1" as="geometry" />
        </mxCell>
        <mxCell id="332" value="" style="edgeStyle=orthogonalEdgeStyle;html=1;" edge="1" source="334" target="331" parent="1">
          <mxGeometry relative="1" as="geometry" />
        </mxCell>
        <mxCell id="354" value="Error Message" style="edgeLabel;html=1;align=center;verticalAlign=middle;resizable=0;points=[];" vertex="1" connectable="0" parent="332">
          <mxGeometry x="-0.6019" y="3" relative="1" as="geometry">
            <mxPoint as="offset" />
          </mxGeometry>
        </mxCell>
        <mxCell id="381" value="" style="edgeStyle=orthogonalEdgeStyle;html=1;" edge="1" parent="1" source="364" target="378">
          <mxGeometry relative="1" as="geometry" />
        </mxCell>
        <mxCell id="382" style="edgeStyle=orthogonalEdgeStyle;html=1;entryX=0;entryY=0.5;entryDx=0;entryDy=0;" edge="1" parent="1" source="364" target="379">
          <mxGeometry relative="1" as="geometry" />
        </mxCell>
        <mxCell id="383" style="edgeStyle=orthogonalEdgeStyle;html=1;entryX=0;entryY=0.5;entryDx=0;entryDy=0;" edge="1" parent="1" source="364" target="380">
          <mxGeometry relative="1" as="geometry" />
        </mxCell>
        <mxCell id="384" style="edgeStyle=orthogonalEdgeStyle;html=1;entryX=0;entryY=0.5;entryDx=0;entryDy=0;" edge="1" parent="1" source="364" target="377">
          <mxGeometry relative="1" as="geometry" />
        </mxCell>
        <mxCell id="385" style="edgeStyle=orthogonalEdgeStyle;html=1;entryX=0;entryY=0.5;entryDx=0;entryDy=0;" edge="1" parent="1" source="364" target="376">
          <mxGeometry relative="1" as="geometry" />
        </mxCell>
        <mxCell id="444" value="" style="edgeStyle=orthogonalEdgeStyle;html=1;" edge="1" parent="1" source="364" target="443">
          <mxGeometry relative="1" as="geometry" />
        </mxCell>
        <mxCell id="364" value="&lt;span style=&quot;caret-color: rgb(0, 0, 0); color: rgb(0, 0, 0); text-align: start;&quot;&gt;&lt;/span&gt;&lt;span style=&quot;caret-color: rgb(0, 0, 0); color: rgb(0, 0, 0); text-align: start; white-space-collapse: preserve;&quot;&gt;&lt;span style=&quot;color: rgb(0, 0, 0);&quot;&gt;&lt;span style=&quot;color: rgb(0, 0, 0); white-space-collapse: collapse;&quot;&gt;&lt;/span&gt;&lt;span style=&quot;color: rgb(0, 0, 0); white-space-collapse: collapse;&quot;&gt;&lt;/span&gt;&lt;span style=&quot;color: rgb(0, 0, 0);&quot;&gt;(3)&lt;br&gt;Data Exchange Contacts&lt;/span&gt;&lt;/span&gt;&lt;/span&gt;" style="rounded=0;whiteSpace=wrap;html=1;" vertex="1" parent="1">
          <mxGeometry x="480" y="2750" width="120" height="60" as="geometry" />
        </mxCell>
        <mxCell id="418" style="edgeStyle=orthogonalEdgeStyle;html=1;entryX=0;entryY=0.5;entryDx=0;entryDy=0;" edge="1" parent="1" source="376" target="411">
          <mxGeometry relative="1" as="geometry" />
        </mxCell>
        <mxCell id="376" value="&lt;span style=&quot;caret-color: rgb(0, 0, 0); color: rgb(0, 0, 0); text-align: start;&quot;&gt;&lt;/span&gt;&lt;span style=&quot;caret-color: rgb(0, 0, 0); color: rgb(0, 0, 0); text-align: start;&quot;&gt;&lt;/span&gt;&lt;span style=&quot;caret-color: rgb(0, 0, 0); color: rgb(0, 0, 0); text-align: start;&quot;&gt;&lt;/span&gt;&lt;span style=&quot;caret-color: rgb(0, 0, 0); color: rgb(0, 0, 0); text-align: start; white-space-collapse: preserve;&quot;&gt;Statements&lt;/span&gt;" style="rounded=0;whiteSpace=wrap;html=1;" vertex="1" parent="1">
          <mxGeometry x="650" y="3030" width="120" height="60" as="geometry" />
        </mxCell>
        <mxCell id="417" style="edgeStyle=orthogonalEdgeStyle;html=1;entryX=0;entryY=0.5;entryDx=0;entryDy=0;" edge="1" parent="1" source="377" target="411">
          <mxGeometry relative="1" as="geometry" />
        </mxCell>
        <mxCell id="377" value="&lt;span style=&quot;caret-color: rgb(0, 0, 0); color: rgb(0, 0, 0); text-align: start;&quot;&gt;&lt;/span&gt;&lt;span style=&quot;caret-color: rgb(0, 0, 0); color: rgb(0, 0, 0); text-align: start;&quot;&gt;&lt;/span&gt;&lt;span style=&quot;caret-color: rgb(0, 0, 0); color: rgb(0, 0, 0); text-align: start;&quot;&gt;&lt;/span&gt;&lt;span style=&quot;caret-color: rgb(0, 0, 0); color: rgb(0, 0, 0); text-align: start; white-space-collapse: preserve;&quot;&gt;Recap &amp;amp; Invoice&lt;/span&gt;" style="rounded=0;whiteSpace=wrap;html=1;" vertex="1" parent="1">
          <mxGeometry x="650" y="2890" width="120" height="60" as="geometry" />
        </mxCell>
        <mxCell id="413" style="edgeStyle=orthogonalEdgeStyle;html=1;" edge="1" parent="1" source="378" target="411">
          <mxGeometry relative="1" as="geometry" />
        </mxCell>
        <mxCell id="378" value="&lt;span style=&quot;caret-color: rgb(0, 0, 0); color: rgb(0, 0, 0); text-align: start;&quot;&gt;&lt;/span&gt;&lt;span style=&quot;caret-color: rgb(0, 0, 0); color: rgb(0, 0, 0); text-align: start; white-space-collapse: preserve;&quot;&gt;&lt;span style=&quot;color: rgb(0, 0, 0); white-space-collapse: collapse;&quot;&gt;&lt;/span&gt;&lt;span style=&quot;color: rgb(0, 0, 0); white-space-collapse: collapse;&quot;&gt;&lt;/span&gt;&lt;span style=&quot;color: rgb(0, 0, 0);&quot;&gt;Final Billing &lt;/span&gt;&lt;/span&gt;&lt;div&gt;&lt;span style=&quot;caret-color: rgb(0, 0, 0); color: rgb(0, 0, 0); text-align: start; white-space-collapse: preserve;&quot;&gt;&lt;span style=&quot;color: rgb(0, 0, 0);&quot;&gt;Summary&lt;/span&gt;&lt;/span&gt;&lt;/div&gt;" style="rounded=0;whiteSpace=wrap;html=1;" vertex="1" parent="1">
          <mxGeometry x="650" y="2750" width="120" height="60" as="geometry" />
        </mxCell>
        <mxCell id="416" style="edgeStyle=orthogonalEdgeStyle;html=1;entryX=0;entryY=0.5;entryDx=0;entryDy=0;" edge="1" parent="1" source="379" target="411">
          <mxGeometry relative="1" as="geometry" />
        </mxCell>
        <mxCell id="379" value="&lt;div style=&quot;text-align: start;&quot;&gt;&lt;span style=&quot;background-color: transparent; caret-color: rgb(0, 0, 0); white-space-collapse: preserve;&quot;&gt;A/R Invoices&lt;/span&gt;&lt;/div&gt;&lt;span style=&quot;caret-color: rgb(0, 0, 0); color: rgb(0, 0, 0); text-align: start;&quot;&gt;&lt;/span&gt;" style="rounded=0;whiteSpace=wrap;html=1;" vertex="1" parent="1">
          <mxGeometry x="650" y="2610" width="120" height="60" as="geometry" />
        </mxCell>
        <mxCell id="415" style="edgeStyle=orthogonalEdgeStyle;html=1;entryX=0;entryY=0.5;entryDx=0;entryDy=0;" edge="1" parent="1" source="380" target="411">
          <mxGeometry relative="1" as="geometry" />
        </mxCell>
        <mxCell id="380" value="&lt;span style=&quot;caret-color: rgb(0, 0, 0); color: rgb(0, 0, 0); text-align: start;&quot;&gt;&lt;/span&gt;&lt;span style=&quot;caret-color: rgb(0, 0, 0); color: rgb(0, 0, 0); text-align: start;&quot;&gt;&lt;/span&gt;&lt;span style=&quot;caret-color: rgb(0, 0, 0); color: rgb(0, 0, 0); text-align: start;&quot;&gt;&lt;/span&gt;&lt;span style=&quot;caret-color: rgb(0, 0, 0); color: rgb(0, 0, 0); text-align: start; white-space-collapse: preserve;&quot;&gt;Affidavits&lt;/span&gt;" style="rounded=0;whiteSpace=wrap;html=1;" vertex="1" parent="1">
          <mxGeometry x="650" y="2470" width="120" height="60" as="geometry" />
        </mxCell>
        <mxCell id="397" value="&lt;span style=&quot;color: rgb(0, 0, 0);&quot;&gt;Cancel&lt;/span&gt;" style="ellipse;whiteSpace=wrap;html=1;" vertex="1" parent="1">
          <mxGeometry x="1010" y="2680" width="70" height="70" as="geometry" />
        </mxCell>
        <mxCell id="398" value="&lt;span style=&quot;color: rgb(0, 0, 0);&quot;&gt;Save&lt;/span&gt;" style="ellipse;whiteSpace=wrap;html=1;" vertex="1" parent="1">
          <mxGeometry x="1010" y="2810" width="70" height="70" as="geometry" />
        </mxCell>
        <mxCell id="420" style="edgeStyle=orthogonalEdgeStyle;html=1;entryX=0;entryY=0.5;entryDx=0;entryDy=0;" edge="1" parent="1" source="411" target="397">
          <mxGeometry relative="1" as="geometry" />
        </mxCell>
        <mxCell id="421" style="edgeStyle=orthogonalEdgeStyle;html=1;entryX=0;entryY=0.5;entryDx=0;entryDy=0;" edge="1" parent="1" source="411" target="398">
          <mxGeometry relative="1" as="geometry" />
        </mxCell>
        <mxCell id="411" value="Fill in Data Exchange Details" style="rhombus;whiteSpace=wrap;html=1;fillColor=#fad7ac;strokeColor=#b46504;" vertex="1" parent="1">
          <mxGeometry x="870" y="2740" width="80" height="80" as="geometry" />
        </mxCell>
        <mxCell id="472" style="edgeStyle=orthogonalEdgeStyle;html=1;entryX=0;entryY=0.5;entryDx=0;entryDy=0;" edge="1" parent="1" source="443" target="469">
          <mxGeometry relative="1" as="geometry" />
        </mxCell>
        <mxCell id="443" value="&lt;span style=&quot;caret-color: rgb(0, 0, 0); color: rgb(0, 0, 0); text-align: start;&quot;&gt;&lt;/span&gt;&lt;span style=&quot;caret-color: rgb(0, 0, 0); color: rgb(0, 0, 0); text-align: start;&quot;&gt;&lt;/span&gt;&lt;span style=&quot;caret-color: rgb(0, 0, 0); color: rgb(0, 0, 0); text-align: start; white-space-collapse: preserve;&quot;&gt;(4)&lt;br&gt;Notes and Instructions&lt;/span&gt;" style="whiteSpace=wrap;html=1;rounded=0;" vertex="1" parent="1">
          <mxGeometry x="480" y="3160" width="120" height="60" as="geometry" />
        </mxCell>
        <mxCell id="293" style="edgeStyle=orthogonalEdgeStyle;html=1;entryX=0;entryY=0.5;entryDx=0;entryDy=0;" edge="1" parent="1" source="283" target="290">
          <mxGeometry relative="1" as="geometry">
            <Array as="points">
              <mxPoint x="1110" y="1530" />
              <mxPoint x="1110" y="1670" />
            </Array>
          </mxGeometry>
        </mxCell>
        <mxCell id="294" style="edgeStyle=orthogonalEdgeStyle;html=1;entryX=0;entryY=0.5;entryDx=0;entryDy=0;" edge="1" parent="1" source="283" target="289">
          <mxGeometry relative="1" as="geometry">
            <Array as="points">
              <mxPoint x="1110" y="1530" />
              <mxPoint x="1110" y="1810" />
            </Array>
          </mxGeometry>
        </mxCell>
        <mxCell id="292" style="edgeStyle=orthogonalEdgeStyle;html=1;entryX=0;entryY=0.5;entryDx=0;entryDy=0;" edge="1" parent="1" source="283" target="291">
          <mxGeometry relative="1" as="geometry" />
        </mxCell>
        <mxCell id="229" value="" style="edgeStyle=orthogonalEdgeStyle;html=1;" edge="1" parent="1" source="205" target="228">
          <mxGeometry relative="1" as="geometry" />
        </mxCell>
        <mxCell id="205" value="&lt;span style=&quot;caret-color: rgb(0, 0, 0); color: rgb(0, 0, 0); text-align: start;&quot;&gt;&lt;/span&gt;&lt;span style=&quot;caret-color: rgb(0, 0, 0); color: rgb(0, 0, 0); text-align: start;&quot;&gt;&lt;/span&gt;&lt;span style=&quot;caret-color: rgb(0, 0, 0); color: rgb(0, 0, 0); text-align: start;&quot;&gt;&lt;/span&gt;&lt;span style=&quot;caret-color: rgb(0, 0, 0); color: rgb(0, 0, 0); text-align: start; white-space-collapse: preserve;&quot;&gt;Client Creation with Missing Mandatory Fields&lt;/span&gt;" style="rounded=0;whiteSpace=wrap;html=1;" vertex="1" parent="1">
          <mxGeometry x="480" y="1100" width="120" height="60" as="geometry" />
        </mxCell>
        <mxCell id="224" value="" style="edgeStyle=orthogonalEdgeStyle;html=1;" edge="1" parent="1" source="208" target="213">
          <mxGeometry relative="1" as="geometry" />
        </mxCell>
        <mxCell id="208" value="&lt;span style=&quot;caret-color: rgb(0, 0, 0); color: rgb(0, 0, 0); text-align: start;&quot;&gt;&lt;/span&gt;&lt;span style=&quot;caret-color: rgb(0, 0, 0); color: rgb(0, 0, 0); text-align: start;&quot;&gt;&lt;/span&gt;&lt;span style=&quot;caret-color: rgb(0, 0, 0); color: rgb(0, 0, 0); text-align: start; white-space-collapse: preserve;&quot;&gt;Manual Client Creation&lt;/span&gt;&lt;span style=&quot;caret-color: rgb(0, 0, 0); color: rgb(0, 0, 0); text-align: start;&quot;&gt;&lt;/span&gt;" style="rounded=0;whiteSpace=wrap;html=1;" vertex="1" parent="1">
          <mxGeometry x="80" y="1100" width="120" height="60" as="geometry" />
        </mxCell>
        <mxCell id="491" style="edgeStyle=orthogonalEdgeStyle;html=1;entryX=0;entryY=0.5;entryDx=0;entryDy=0;exitX=0;exitY=0.5;exitDx=0;exitDy=0;" edge="1" parent="1" source="209" target="478">
          <mxGeometry relative="1" as="geometry">
            <Array as="points">
              <mxPoint x="1410" y="1130" />
              <mxPoint x="1410" y="1250" />
            </Array>
          </mxGeometry>
        </mxCell>
        <mxCell id="493" style="edgeStyle=orthogonalEdgeStyle;html=1;entryX=0;entryY=0.5;entryDx=0;entryDy=0;exitX=0;exitY=0.5;exitDx=0;exitDy=0;" edge="1" parent="1" source="209" target="482">
          <mxGeometry relative="1" as="geometry">
            <Array as="points">
              <mxPoint x="1410" y="1130" />
              <mxPoint x="1410" y="1530" />
            </Array>
          </mxGeometry>
        </mxCell>
        <mxCell id="494" style="edgeStyle=orthogonalEdgeStyle;html=1;entryX=0;entryY=0.5;entryDx=0;entryDy=0;exitX=0;exitY=0.5;exitDx=0;exitDy=0;" edge="1" parent="1" source="209" target="484">
          <mxGeometry relative="1" as="geometry">
            <mxPoint x="1409.98" y="1130" as="sourcePoint" />
            <mxPoint x="1409.98" y="1670" as="targetPoint" />
            <Array as="points">
              <mxPoint x="1410" y="1130" />
              <mxPoint x="1410" y="1670" />
            </Array>
          </mxGeometry>
        </mxCell>
        <mxCell id="495" style="edgeStyle=orthogonalEdgeStyle;html=1;entryX=0;entryY=0.5;entryDx=0;entryDy=0;" edge="1" parent="1" source="209" target="480">
          <mxGeometry relative="1" as="geometry">
            <Array as="points">
              <mxPoint x="1410" y="1130" />
              <mxPoint x="1410" y="1390" />
            </Array>
          </mxGeometry>
        </mxCell>
        <mxCell id="209" value="&lt;span style=&quot;caret-color: rgb(0, 0, 0); color: rgb(0, 0, 0); text-align: start;&quot;&gt;&lt;/span&gt;&lt;span style=&quot;caret-color: rgb(0, 0, 0); color: rgb(0, 0, 0); text-align: start;&quot;&gt;&lt;/span&gt;&lt;span style=&quot;caret-color: rgb(0, 0, 0); color: rgb(0, 0, 0); text-align: start;&quot;&gt;&lt;/span&gt;&lt;span style=&quot;caret-color: rgb(0, 0, 0); color: rgb(0, 0, 0); text-align: start; white-space-collapse: preserve;&quot;&gt;Client Already Exists&lt;/span&gt;" style="rounded=0;whiteSpace=wrap;html=1;" vertex="1" parent="1">
          <mxGeometry x="1430" y="1100" width="120" height="60" as="geometry" />
        </mxCell>
        <mxCell id="211" value="&lt;span style=&quot;caret-color: rgb(0, 0, 0); color: rgb(0, 0, 0); text-align: start;&quot;&gt;&lt;/span&gt;&lt;span style=&quot;caret-color: rgb(0, 0, 0); color: rgb(0, 0, 0); text-align: start;&quot;&gt;&lt;/span&gt;&lt;span style=&quot;caret-color: rgb(0, 0, 0); color: rgb(0, 0, 0); text-align: start; white-space-collapse: preserve;&quot;&gt;Save&lt;/span&gt;" style="ellipse;whiteSpace=wrap;html=1;rounded=0;" vertex="1" parent="1">
          <mxGeometry x="260" y="1650" width="80" height="80" as="geometry" />
        </mxCell>
        <mxCell id="225" value="" style="edgeStyle=orthogonalEdgeStyle;html=1;" edge="1" parent="1" source="213" target="215">
          <mxGeometry relative="1" as="geometry" />
        </mxCell>
        <mxCell id="213" value="&lt;span style=&quot;caret-color: rgb(0, 0, 0); color: rgb(0, 0, 0); text-align: start;&quot;&gt;&lt;/span&gt;&lt;span style=&quot;caret-color: rgb(0, 0, 0); color: rgb(0, 0, 0); text-align: start;&quot;&gt;&lt;/span&gt;&lt;span style=&quot;caret-color: rgb(0, 0, 0); color: rgb(0, 0, 0); text-align: start; white-space-collapse: preserve;&quot;&gt;Add New Client&lt;/span&gt;" style="rounded=0;whiteSpace=wrap;html=1;" vertex="1" parent="1">
          <mxGeometry x="80" y="1200" width="120" height="60" as="geometry" />
        </mxCell>
        <mxCell id="214" value="" style="edgeStyle=orthogonalEdgeStyle;html=1;" edge="1" source="215" target="217" parent="1">
          <mxGeometry relative="1" as="geometry" />
        </mxCell>
        <mxCell id="215" value="&lt;span style=&quot;caret-color: rgb(0, 0, 0); color: rgb(0, 0, 0); text-align: start;&quot;&gt;&lt;/span&gt;&lt;span style=&quot;caret-color: rgb(0, 0, 0); color: rgb(0, 0, 0); text-align: start;&quot;&gt;&lt;/span&gt;&lt;span style=&quot;caret-color: rgb(0, 0, 0); color: rgb(0, 0, 0); text-align: start; white-space-collapse: preserve;&quot;&gt;Fill in &lt;/span&gt;&lt;div&gt;&lt;span style=&quot;caret-color: rgb(0, 0, 0); color: rgb(0, 0, 0); text-align: start; white-space-collapse: preserve;&quot;&gt;Client &lt;/span&gt;&lt;/div&gt;&lt;div&gt;&lt;span style=&quot;caret-color: rgb(0, 0, 0); color: rgb(0, 0, 0); text-align: start; white-space-collapse: preserve;&quot;&gt;Details&lt;/span&gt;&lt;/div&gt;" style="rhombus;whiteSpace=wrap;html=1;rounded=0;fillColor=#fad7ac;strokeColor=#b46504;" vertex="1" parent="1">
          <mxGeometry x="100" y="1290" width="80" height="80" as="geometry" />
        </mxCell>
        <mxCell id="216" value="" style="edgeStyle=orthogonalEdgeStyle;html=1;" edge="1" source="217" target="219" parent="1">
          <mxGeometry relative="1" as="geometry" />
        </mxCell>
        <mxCell id="217" value="&lt;span style=&quot;caret-color: rgb(0, 0, 0); color: rgb(0, 0, 0); text-align: start;&quot;&gt;&lt;/span&gt;&lt;span style=&quot;caret-color: rgb(0, 0, 0); color: rgb(0, 0, 0); text-align: start;&quot;&gt;&lt;/span&gt;&lt;span style=&quot;caret-color: rgb(0, 0, 0); color: rgb(0, 0, 0); text-align: start; white-space-collapse: preserve;&quot;&gt;(1)&lt;br&gt;Client Information&lt;/span&gt;" style="whiteSpace=wrap;html=1;rounded=0;" vertex="1" parent="1">
          <mxGeometry x="240" y="1300" width="120" height="60" as="geometry" />
        </mxCell>
        <mxCell id="218" value="" style="edgeStyle=orthogonalEdgeStyle;html=1;" edge="1" source="219" target="221" parent="1">
          <mxGeometry relative="1" as="geometry" />
        </mxCell>
        <mxCell id="219" value="&lt;span style=&quot;caret-color: rgb(0, 0, 0); color: rgb(0, 0, 0); text-align: start;&quot;&gt;&lt;/span&gt;&lt;span style=&quot;caret-color: rgb(0, 0, 0); color: rgb(0, 0, 0); text-align: start;&quot;&gt;&lt;/span&gt;&lt;span style=&quot;caret-color: rgb(0, 0, 0); color: rgb(0, 0, 0); text-align: start; white-space-collapse: preserve;&quot;&gt;(2)&lt;br&gt;Employees/Contact&lt;/span&gt;" style="whiteSpace=wrap;html=1;rounded=0;" vertex="1" parent="1">
          <mxGeometry x="240" y="1390" width="120" height="60" as="geometry" />
        </mxCell>
        <mxCell id="220" value="" style="edgeStyle=orthogonalEdgeStyle;html=1;" edge="1" source="221" target="223" parent="1">
          <mxGeometry relative="1" as="geometry" />
        </mxCell>
        <mxCell id="221" value="&lt;span style=&quot;caret-color: rgb(0, 0, 0); color: rgb(0, 0, 0); text-align: start;&quot;&gt;&lt;/span&gt;&lt;span style=&quot;caret-color: rgb(0, 0, 0); color: rgb(0, 0, 0); text-align: start;&quot;&gt;&lt;/span&gt;&lt;span style=&quot;caret-color: rgb(0, 0, 0); color: rgb(0, 0, 0); text-align: start; white-space-collapse: preserve;&quot;&gt;(3)&lt;br&gt;Data Exchange Contacts&lt;/span&gt;" style="whiteSpace=wrap;html=1;rounded=0;" vertex="1" parent="1">
          <mxGeometry x="240" y="1480" width="120" height="60" as="geometry" />
        </mxCell>
        <mxCell id="222" value="" style="edgeStyle=orthogonalEdgeStyle;html=1;" edge="1" source="223" target="211" parent="1">
          <mxGeometry relative="1" as="geometry" />
        </mxCell>
        <mxCell id="223" value="&lt;span style=&quot;caret-color: rgb(0, 0, 0); color: rgb(0, 0, 0); text-align: start;&quot;&gt;&lt;/span&gt;&lt;span style=&quot;caret-color: rgb(0, 0, 0); color: rgb(0, 0, 0); text-align: start;&quot;&gt;&lt;/span&gt;&lt;span style=&quot;caret-color: rgb(0, 0, 0); color: rgb(0, 0, 0); text-align: start; white-space-collapse: preserve;&quot;&gt;(4)&lt;br&gt;Notes and Instructions&lt;/span&gt;" style="whiteSpace=wrap;html=1;rounded=0;" vertex="1" parent="1">
          <mxGeometry x="240" y="1570" width="120" height="60" as="geometry" />
        </mxCell>
        <mxCell id="235" value="" style="edgeStyle=orthogonalEdgeStyle;html=1;" edge="1" parent="1" source="228" target="232">
          <mxGeometry relative="1" as="geometry" />
        </mxCell>
        <mxCell id="270" style="edgeStyle=orthogonalEdgeStyle;html=1;entryX=0;entryY=0.5;entryDx=0;entryDy=0;" edge="1" parent="1" source="228" target="234">
          <mxGeometry relative="1" as="geometry">
            <Array as="points">
              <mxPoint x="620" y="1530" />
              <mxPoint x="620" y="1250" />
            </Array>
          </mxGeometry>
        </mxCell>
        <mxCell id="272" style="edgeStyle=orthogonalEdgeStyle;html=1;entryX=0;entryY=0.5;entryDx=0;entryDy=0;" edge="1" parent="1" source="228" target="233">
          <mxGeometry relative="1" as="geometry">
            <Array as="points">
              <mxPoint x="620" y="1530" />
              <mxPoint x="620" y="1390" />
            </Array>
          </mxGeometry>
        </mxCell>
        <mxCell id="273" style="edgeStyle=orthogonalEdgeStyle;html=1;entryX=0;entryY=0.5;entryDx=0;entryDy=0;" edge="1" parent="1" source="228" target="231">
          <mxGeometry relative="1" as="geometry">
            <Array as="points">
              <mxPoint x="620" y="1530" />
              <mxPoint x="620" y="1670" />
            </Array>
          </mxGeometry>
        </mxCell>
        <mxCell id="274" style="edgeStyle=orthogonalEdgeStyle;html=1;entryX=0;entryY=0.5;entryDx=0;entryDy=0;" edge="1" parent="1" source="228" target="230">
          <mxGeometry relative="1" as="geometry">
            <Array as="points">
              <mxPoint x="620" y="1530" />
              <mxPoint x="620" y="1810" />
            </Array>
          </mxGeometry>
        </mxCell>
        <mxCell id="228" value="&lt;span style=&quot;caret-color: rgb(0, 0, 0); color: rgb(0, 0, 0); text-align: start;&quot;&gt;&lt;/span&gt;&lt;span style=&quot;caret-color: rgb(0, 0, 0); color: rgb(0, 0, 0); text-align: start;&quot;&gt;&lt;/span&gt;&lt;span style=&quot;caret-color: rgb(0, 0, 0); color: rgb(0, 0, 0); text-align: start;&quot;&gt;&lt;/span&gt;&lt;span style=&quot;caret-color: rgb(0, 0, 0); color: rgb(0, 0, 0); text-align: start; white-space-collapse: preserve;&quot;&gt;(1)&lt;br&gt;Client Information&lt;/span&gt;" style="rounded=0;whiteSpace=wrap;html=1;" vertex="1" parent="1">
          <mxGeometry x="480" y="1500" width="120" height="60" as="geometry" />
        </mxCell>
        <mxCell id="287" style="edgeStyle=orthogonalEdgeStyle;html=1;entryX=0;entryY=0.5;entryDx=0;entryDy=0;" edge="1" parent="1" source="230" target="283">
          <mxGeometry relative="1" as="geometry" />
        </mxCell>
        <mxCell id="230" value="&lt;span style=&quot;caret-color: rgb(0, 0, 0); color: rgb(0, 0, 0); text-align: start;&quot;&gt;&lt;/span&gt;&lt;span style=&quot;caret-color: rgb(0, 0, 0); color: rgb(0, 0, 0); text-align: start;&quot;&gt;&lt;/span&gt;&lt;span style=&quot;caret-color: rgb(0, 0, 0); color: rgb(0, 0, 0); text-align: start;&quot;&gt;&lt;/span&gt;&lt;span style=&quot;caret-color: rgb(0, 0, 0); color: rgb(0, 0, 0); text-align: start; white-space-collapse: preserve;&quot;&gt;Zip Code&lt;/span&gt;" style="rounded=0;whiteSpace=wrap;html=1;" vertex="1" parent="1">
          <mxGeometry x="650" y="1780" width="120" height="60" as="geometry" />
        </mxCell>
        <mxCell id="286" style="edgeStyle=orthogonalEdgeStyle;html=1;entryX=0;entryY=0.5;entryDx=0;entryDy=0;" edge="1" parent="1" source="231" target="283">
          <mxGeometry relative="1" as="geometry" />
        </mxCell>
        <mxCell id="231" value="&lt;span style=&quot;caret-color: rgb(0, 0, 0); color: rgb(0, 0, 0); text-align: start;&quot;&gt;&lt;/span&gt;&lt;span style=&quot;caret-color: rgb(0, 0, 0); color: rgb(0, 0, 0); text-align: start;&quot;&gt;&lt;/span&gt;&lt;span style=&quot;caret-color: rgb(0, 0, 0); color: rgb(0, 0, 0); text-align: start;&quot;&gt;&lt;/span&gt;&lt;span style=&quot;caret-color: rgb(0, 0, 0); color: rgb(0, 0, 0); text-align: start; white-space-collapse: preserve;&quot;&gt;State&lt;/span&gt;" style="rounded=0;whiteSpace=wrap;html=1;" vertex="1" parent="1">
          <mxGeometry x="650" y="1640" width="120" height="60" as="geometry" />
        </mxCell>
        <mxCell id="285" style="edgeStyle=orthogonalEdgeStyle;html=1;" edge="1" parent="1" source="232">
          <mxGeometry relative="1" as="geometry">
            <mxPoint x="970" y="1530" as="targetPoint" />
          </mxGeometry>
        </mxCell>
        <mxCell id="232" value="&lt;span style=&quot;caret-color: rgb(0, 0, 0); color: rgb(0, 0, 0); text-align: start;&quot;&gt;&lt;/span&gt;&lt;span style=&quot;caret-color: rgb(0, 0, 0); color: rgb(0, 0, 0); text-align: start; white-space-collapse: preserve;&quot;&gt;&lt;span style=&quot;color: rgb(0, 0, 0); white-space-collapse: collapse;&quot;&gt;&lt;/span&gt;&lt;span style=&quot;color: rgb(0, 0, 0); white-space-collapse: collapse;&quot;&gt;&lt;/span&gt;&lt;span style=&quot;color: rgb(0, 0, 0);&quot;&gt;City&lt;/span&gt;&lt;/span&gt;" style="rounded=0;whiteSpace=wrap;html=1;" vertex="1" parent="1">
          <mxGeometry x="650" y="1500" width="120" height="60" as="geometry" />
        </mxCell>
        <mxCell id="284" style="edgeStyle=orthogonalEdgeStyle;html=1;entryX=0;entryY=0.5;entryDx=0;entryDy=0;" edge="1" parent="1" source="233" target="283">
          <mxGeometry relative="1" as="geometry" />
        </mxCell>
        <mxCell id="233" value="&lt;span style=&quot;caret-color: rgb(0, 0, 0); color: rgb(0, 0, 0); text-align: start;&quot;&gt;&lt;/span&gt;&lt;span style=&quot;caret-color: rgb(0, 0, 0); color: rgb(0, 0, 0); text-align: start;&quot;&gt;&lt;/span&gt;&lt;span style=&quot;caret-color: rgb(0, 0, 0); color: rgb(0, 0, 0); text-align: start;&quot;&gt;&lt;/span&gt;&lt;span style=&quot;caret-color: rgb(0, 0, 0); color: rgb(0, 0, 0); text-align: start; white-space-collapse: preserve;&quot;&gt;Address Line 1&lt;/span&gt;" style="rounded=0;whiteSpace=wrap;html=1;" vertex="1" parent="1">
          <mxGeometry x="650" y="1360" width="120" height="60" as="geometry" />
        </mxCell>
        <mxCell id="266" style="edgeStyle=orthogonalEdgeStyle;html=1;entryX=0;entryY=0.5;entryDx=0;entryDy=0;" edge="1" parent="1" source="234" target="253">
          <mxGeometry relative="1" as="geometry" />
        </mxCell>
        <mxCell id="267" style="edgeStyle=orthogonalEdgeStyle;html=1;entryX=0;entryY=0.5;entryDx=0;entryDy=0;" edge="1" parent="1" source="234" target="254">
          <mxGeometry relative="1" as="geometry" />
        </mxCell>
        <mxCell id="234" value="&lt;span style=&quot;caret-color: rgb(0, 0, 0); color: rgb(0, 0, 0); text-align: start;&quot;&gt;&lt;/span&gt;&lt;span style=&quot;caret-color: rgb(0, 0, 0); color: rgb(0, 0, 0); text-align: start;&quot;&gt;&lt;/span&gt;&lt;span style=&quot;caret-color: rgb(0, 0, 0); color: rgb(0, 0, 0); text-align: start;&quot;&gt;&lt;/span&gt;&lt;span style=&quot;caret-color: rgb(0, 0, 0); color: rgb(0, 0, 0); text-align: start; white-space-collapse: preserve;&quot;&gt;Client Type&lt;/span&gt;" style="rounded=0;whiteSpace=wrap;html=1;" vertex="1" parent="1">
          <mxGeometry x="650" y="1220" width="120" height="60" as="geometry" />
        </mxCell>
        <mxCell id="263" style="edgeStyle=orthogonalEdgeStyle;html=1;entryX=0.094;entryY=0.525;entryDx=0;entryDy=0;entryPerimeter=0;" edge="1" parent="1" source="253" target="258">
          <mxGeometry relative="1" as="geometry" />
        </mxCell>
        <mxCell id="265" style="edgeStyle=orthogonalEdgeStyle;html=1;entryX=0.094;entryY=0.525;entryDx=0;entryDy=0;entryPerimeter=0;" edge="1" parent="1" source="254" target="258">
          <mxGeometry relative="1" as="geometry" />
        </mxCell>
        <mxCell id="253" value="&lt;span style=&quot;caret-color: rgb(0, 0, 0); color: rgb(0, 0, 0); text-align: start;&quot;&gt;&lt;/span&gt;&lt;span style=&quot;caret-color: rgb(0, 0, 0); color: rgb(0, 0, 0); text-align: start;&quot;&gt;&lt;/span&gt;&lt;span style=&quot;caret-color: rgb(0, 0, 0); color: rgb(0, 0, 0); text-align: start; white-space-collapse: preserve;&quot;&gt;Individual&lt;/span&gt;" style="ellipse;whiteSpace=wrap;html=1;" vertex="1" parent="1">
          <mxGeometry x="840" y="1170" width="70" height="70" as="geometry" />
        </mxCell>
        <mxCell id="254" value="&lt;span style=&quot;caret-color: rgb(0, 0, 0); color: rgb(0, 0, 0); text-align: start;&quot;&gt;&lt;/span&gt;&lt;span style=&quot;caret-color: rgb(0, 0, 0); color: rgb(0, 0, 0); text-align: start;&quot;&gt;&lt;/span&gt;&lt;span style=&quot;caret-color: rgb(0, 0, 0); color: rgb(0, 0, 0); text-align: start; white-space-collapse: preserve;&quot;&gt;Firm&lt;/span&gt;" style="ellipse;whiteSpace=wrap;html=1;" vertex="1" parent="1">
          <mxGeometry x="840" y="1260" width="70" height="70" as="geometry" />
        </mxCell>
        <mxCell id="277" value="" style="group" vertex="1" connectable="0" parent="1">
          <mxGeometry x="970" y="1210" width="319" height="80" as="geometry" />
        </mxCell>
        <mxCell id="268" value="&lt;span style=&quot;caret-color: rgb(0, 0, 0); color: rgb(0, 0, 0); text-align: start;&quot;&gt;&lt;/span&gt;&lt;span style=&quot;caret-color: rgb(0, 0, 0); color: rgb(0, 0, 0); text-align: start;&quot;&gt;&lt;/span&gt;&lt;span style=&quot;caret-color: rgb(0, 0, 0); color: rgb(0, 0, 0); text-align: start; white-space-collapse: preserve;&quot;&gt;Client Type is Required&lt;/span&gt;" style="whiteSpace=wrap;html=1;rounded=0;" vertex="1" parent="277">
          <mxGeometry x="199" y="10" width="120" height="60" as="geometry" />
        </mxCell>
        <mxCell id="269" value="" style="edgeStyle=orthogonalEdgeStyle;html=1;" edge="1" parent="277" source="258" target="268">
          <mxGeometry relative="1" as="geometry" />
        </mxCell>
        <mxCell id="275" value="Error Message" style="edgeLabel;html=1;align=center;verticalAlign=middle;resizable=0;points=[];" vertex="1" connectable="0" parent="269">
          <mxGeometry x="-0.0976" y="2" relative="1" as="geometry">
            <mxPoint as="offset" />
          </mxGeometry>
        </mxCell>
        <mxCell id="258" value="&lt;span style=&quot;caret-color: rgb(0, 0, 0); color: rgb(0, 0, 0); text-align: start;&quot;&gt;&lt;/span&gt;&lt;span style=&quot;caret-color: rgb(0, 0, 0); color: rgb(0, 0, 0); text-align: start;&quot;&gt;&lt;/span&gt;&lt;span style=&quot;caret-color: rgb(0, 0, 0); color: rgb(0, 0, 0); text-align: start;&quot;&gt;&lt;/span&gt;&lt;span style=&quot;caret-color: rgb(0, 0, 0); color: rgb(0, 0, 0); text-align: start; white-space-collapse: preserve;&quot;&gt;Mandatory field is missing?&lt;/span&gt;" style="rhombus;whiteSpace=wrap;html=1;rounded=0;fillColor=#fad7ac;strokeColor=#b46504;" vertex="1" parent="277">
          <mxGeometry width="80" height="80" as="geometry" />
        </mxCell>
        <mxCell id="280" value="&lt;span style=&quot;caret-color: rgb(0, 0, 0); color: rgb(0, 0, 0); text-align: start;&quot;&gt;&lt;/span&gt;&lt;span style=&quot;caret-color: rgb(0, 0, 0); color: rgb(0, 0, 0); text-align: start;&quot;&gt;&lt;/span&gt;&lt;span style=&quot;caret-color: rgb(0, 0, 0); color: rgb(0, 0, 0); text-align: start;&quot;&gt;&lt;/span&gt;&lt;span style=&quot;caret-color: rgb(0, 0, 0); color: rgb(0, 0, 0); text-align: start; white-space-collapse: preserve;&quot;&gt;City is Required&lt;/span&gt;" style="whiteSpace=wrap;html=1;rounded=0;" vertex="1" parent="1">
          <mxGeometry x="1169" y="1500" width="120" height="60" as="geometry" />
        </mxCell>
        <mxCell id="281" value="" style="edgeStyle=orthogonalEdgeStyle;html=1;" edge="1" parent="1" source="283" target="280">
          <mxGeometry relative="1" as="geometry" />
        </mxCell>
        <mxCell id="282" value="&lt;font style=&quot;font-size: 12px;&quot;&gt;Error Message&lt;/font&gt;" style="edgeLabel;html=1;align=center;verticalAlign=middle;resizable=0;points=[];" vertex="1" connectable="0" parent="281">
          <mxGeometry x="-0.0976" y="2" relative="1" as="geometry">
            <mxPoint as="offset" />
          </mxGeometry>
        </mxCell>
        <mxCell id="283" value="&lt;span style=&quot;caret-color: rgb(0, 0, 0); color: rgb(0, 0, 0); text-align: start;&quot;&gt;&lt;/span&gt;&lt;span style=&quot;caret-color: rgb(0, 0, 0); color: rgb(0, 0, 0); text-align: start;&quot;&gt;&lt;/span&gt;&lt;span style=&quot;caret-color: rgb(0, 0, 0); color: rgb(0, 0, 0); text-align: start;&quot;&gt;&lt;/span&gt;&lt;span style=&quot;caret-color: rgb(0, 0, 0); color: rgb(0, 0, 0); text-align: start; white-space-collapse: preserve;&quot;&gt;Mandatory field is missing?&lt;/span&gt;" style="rhombus;whiteSpace=wrap;html=1;rounded=0;fillColor=#fad7ac;strokeColor=#b46504;" vertex="1" parent="1">
          <mxGeometry x="970" y="1490" width="80" height="80" as="geometry" />
        </mxCell>
        <mxCell id="289" value="&lt;span style=&quot;caret-color: rgb(0, 0, 0); color: rgb(0, 0, 0); text-align: start;&quot;&gt;&lt;/span&gt;&lt;span style=&quot;caret-color: rgb(0, 0, 0); color: rgb(0, 0, 0); text-align: start;&quot;&gt;&lt;/span&gt;&lt;span style=&quot;caret-color: rgb(0, 0, 0); color: rgb(0, 0, 0); text-align: start;&quot;&gt;&lt;/span&gt;&lt;span style=&quot;caret-color: rgb(0, 0, 0); color: rgb(0, 0, 0); text-align: start; white-space-collapse: preserve;&quot;&gt;Zip Code is Required&lt;/span&gt;" style="whiteSpace=wrap;html=1;rounded=0;" vertex="1" parent="1">
          <mxGeometry x="1170" y="1780" width="120" height="60" as="geometry" />
        </mxCell>
        <mxCell id="290" value="&lt;span style=&quot;caret-color: rgb(0, 0, 0); color: rgb(0, 0, 0); text-align: start;&quot;&gt;&lt;/span&gt;&lt;span style=&quot;caret-color: rgb(0, 0, 0); color: rgb(0, 0, 0); text-align: start;&quot;&gt;&lt;/span&gt;&lt;span style=&quot;caret-color: rgb(0, 0, 0); color: rgb(0, 0, 0); text-align: start;&quot;&gt;&lt;/span&gt;&lt;span style=&quot;caret-color: rgb(0, 0, 0); color: rgb(0, 0, 0); text-align: start; white-space-collapse: preserve;&quot;&gt;State is Required&lt;/span&gt;" style="whiteSpace=wrap;html=1;rounded=0;" vertex="1" parent="1">
          <mxGeometry x="1169" y="1640" width="120" height="60" as="geometry" />
        </mxCell>
        <mxCell id="291" value="&lt;span style=&quot;caret-color: rgb(0, 0, 0); color: rgb(0, 0, 0); text-align: start;&quot;&gt;&lt;/span&gt;&lt;span style=&quot;caret-color: rgb(0, 0, 0); color: rgb(0, 0, 0); text-align: start;&quot;&gt;&lt;/span&gt;&lt;span style=&quot;caret-color: rgb(0, 0, 0); color: rgb(0, 0, 0); text-align: start;&quot;&gt;&lt;/span&gt;&lt;span style=&quot;caret-color: rgb(0, 0, 0); color: rgb(0, 0, 0); text-align: start; white-space-collapse: preserve;&quot;&gt;Address Line 1 is Required&lt;/span&gt;" style="whiteSpace=wrap;html=1;rounded=0;" vertex="1" parent="1">
          <mxGeometry x="1169" y="1360" width="120" height="60" as="geometry" />
        </mxCell>
        <mxCell id="464" value="" style="group;flipH=0;flipV=0;rotation=0;direction=south;" vertex="1" connectable="0" parent="1">
          <mxGeometry x="1840" y="1280" width="365" height="470" as="geometry" />
        </mxCell>
        <mxCell id="465" value="" style="group;flipV=0;flipH=0;direction=west;" vertex="1" connectable="0" parent="464">
          <mxGeometry x="4" y="-3" width="470" height="365" as="geometry" />
        </mxCell>
        <mxCell id="447" style="edgeStyle=orthogonalEdgeStyle;html=1;entryX=0;entryY=0.5;entryDx=0;entryDy=0;" edge="1" parent="465" source="449" target="456">
          <mxGeometry relative="1" as="geometry" />
        </mxCell>
        <mxCell id="448" value="&lt;span style=&quot;color: rgb(0, 0, 0);&quot;&gt;Pop up Message&lt;/span&gt;" style="edgeLabel;html=1;align=center;verticalAlign=middle;resizable=0;points=[];" vertex="1" connectable="0" parent="447">
          <mxGeometry x="0.0013" y="-1" relative="1" as="geometry">
            <mxPoint as="offset" />
          </mxGeometry>
        </mxCell>
        <mxCell id="449" value="&lt;span style=&quot;color: rgb(0, 0, 0);&quot;&gt;Cancel&lt;/span&gt;" style="ellipse;whiteSpace=wrap;html=1;" vertex="1" parent="465">
          <mxGeometry y="45" width="70" height="70" as="geometry" />
        </mxCell>
        <mxCell id="450" value="" style="edgeStyle=orthogonalEdgeStyle;html=1;" edge="1" parent="465" source="452" target="453">
          <mxGeometry relative="1" as="geometry" />
        </mxCell>
        <mxCell id="451" value="Pop up Message" style="edgeLabel;html=1;align=center;verticalAlign=middle;resizable=0;points=[];" vertex="1" connectable="0" parent="450">
          <mxGeometry x="0.043" y="2" relative="1" as="geometry">
            <mxPoint as="offset" />
          </mxGeometry>
        </mxCell>
        <mxCell id="452" value="&lt;span style=&quot;color: rgb(0, 0, 0);&quot;&gt;Save&lt;/span&gt;" style="ellipse;whiteSpace=wrap;html=1;" vertex="1" parent="465">
          <mxGeometry y="250" width="70" height="70" as="geometry" />
        </mxCell>
        <mxCell id="455" style="edgeStyle=orthogonalEdgeStyle;html=1;" edge="1" parent="465" source="456" target="462">
          <mxGeometry relative="1" as="geometry" />
        </mxCell>
        <mxCell id="459" style="edgeStyle=orthogonalEdgeStyle;html=1;entryX=0;entryY=0.5;entryDx=0;entryDy=0;" edge="1" parent="465" target="457">
          <mxGeometry relative="1" as="geometry">
            <mxPoint x="340" y="285" as="sourcePoint" />
          </mxGeometry>
        </mxCell>
        <mxCell id="460" style="edgeStyle=orthogonalEdgeStyle;html=1;entryX=0;entryY=0.5;entryDx=0;entryDy=0;" edge="1" parent="465" target="458">
          <mxGeometry relative="1" as="geometry">
            <mxPoint x="340" y="285" as="sourcePoint" />
          </mxGeometry>
        </mxCell>
        <mxCell id="462" value="&lt;span style=&quot;color: rgb(0, 0, 0);&quot;&gt;No&lt;/span&gt;" style="ellipse;whiteSpace=wrap;html=1;" vertex="1" parent="465">
          <mxGeometry x="400" y="95" width="70" height="70" as="geometry" />
        </mxCell>
        <mxCell id="463" value="" style="group" vertex="1" connectable="0" parent="465">
          <mxGeometry x="220" width="250" height="365" as="geometry" />
        </mxCell>
        <mxCell id="453" value="Do you want to update the record?" style="whiteSpace=wrap;html=1;" vertex="1" parent="463">
          <mxGeometry y="255" width="120" height="60" as="geometry" />
        </mxCell>
        <mxCell id="456" value="Are you sure you want to cancel?" style="whiteSpace=wrap;html=1;" vertex="1" parent="463">
          <mxGeometry y="50" width="120" height="60" as="geometry" />
        </mxCell>
        <mxCell id="457" value="&lt;span style=&quot;color: rgb(0, 0, 0);&quot;&gt;Cancel&lt;/span&gt;" style="ellipse;whiteSpace=wrap;html=1;" vertex="1" parent="463">
          <mxGeometry x="180" y="205" width="70" height="70" as="geometry" />
        </mxCell>
        <mxCell id="458" value="&lt;span style=&quot;color: rgb(0, 0, 0);&quot;&gt;Save&lt;/span&gt;" style="ellipse;whiteSpace=wrap;html=1;" vertex="1" parent="463">
          <mxGeometry x="180" y="295" width="70" height="70" as="geometry" />
        </mxCell>
        <mxCell id="461" value="&lt;span style=&quot;color: rgb(0, 0, 0);&quot;&gt;Yes&lt;/span&gt;" style="ellipse;whiteSpace=wrap;html=1;" vertex="1" parent="463">
          <mxGeometry x="180" width="70" height="70" as="geometry" />
        </mxCell>
        <mxCell id="454" style="edgeStyle=orthogonalEdgeStyle;html=1;entryX=0;entryY=0.5;entryDx=0;entryDy=0;" edge="1" parent="463" source="456" target="461">
          <mxGeometry relative="1" as="geometry" />
        </mxCell>
        <mxCell id="466" value="" style="edgeStyle=orthogonalEdgeStyle;html=1;" edge="1" source="469" target="470" parent="1">
          <mxGeometry relative="1" as="geometry" />
        </mxCell>
        <mxCell id="467" value="" style="edgeStyle=orthogonalEdgeStyle;html=1;" edge="1" source="469" target="470" parent="1">
          <mxGeometry relative="1" as="geometry" />
        </mxCell>
        <mxCell id="468" style="edgeStyle=orthogonalEdgeStyle;html=1;" edge="1" source="469" target="471" parent="1">
          <mxGeometry relative="1" as="geometry" />
        </mxCell>
        <mxCell id="469" value="&lt;span style=&quot;caret-color: rgb(0, 0, 0); color: rgb(0, 0, 0); text-align: start;&quot;&gt;&lt;/span&gt;&lt;span style=&quot;caret-color: rgb(0, 0, 0); color: rgb(0, 0, 0); text-align: start;&quot;&gt;&lt;/span&gt;&lt;span style=&quot;caret-color: rgb(0, 0, 0); color: rgb(0, 0, 0); text-align: start;&quot;&gt;&lt;/span&gt;&lt;span style=&quot;caret-color: rgb(0, 0, 0); color: rgb(0, 0, 0); text-align: start; white-space-collapse: preserve;&quot;&gt;Fill in Client’s Instructions&lt;/span&gt;" style="rhombus;whiteSpace=wrap;html=1;fillColor=#fad7ac;strokeColor=#b46504;" vertex="1" parent="1">
          <mxGeometry x="870" y="3150" width="80" height="80" as="geometry" />
        </mxCell>
        <mxCell id="470" value="&lt;span style=&quot;color: rgb(0, 0, 0);&quot;&gt;Cancel&lt;/span&gt;" style="ellipse;whiteSpace=wrap;html=1;" vertex="1" parent="1">
          <mxGeometry x="1010" y="3080" width="70" height="70" as="geometry" />
        </mxCell>
        <mxCell id="471" value="&lt;span style=&quot;color: rgb(0, 0, 0);&quot;&gt;Save&lt;/span&gt;" style="ellipse;whiteSpace=wrap;html=1;" vertex="1" parent="1">
          <mxGeometry x="1010" y="3230" width="70" height="70" as="geometry" />
        </mxCell>
        <mxCell id="477" value="" style="edgeStyle=orthogonalEdgeStyle;html=1;" edge="1" parent="1" source="478" target="480">
          <mxGeometry relative="1" as="geometry" />
        </mxCell>
        <mxCell id="501" style="edgeStyle=orthogonalEdgeStyle;html=1;entryX=0;entryY=0.5;entryDx=0;entryDy=0;" edge="1" parent="1" source="478" target="490">
          <mxGeometry relative="1" as="geometry" />
        </mxCell>
        <mxCell id="478" value="&lt;span style=&quot;caret-color: rgb(0, 0, 0); color: rgb(0, 0, 0); text-align: start;&quot;&gt;&lt;/span&gt;&lt;span style=&quot;caret-color: rgb(0, 0, 0); color: rgb(0, 0, 0); text-align: start;&quot;&gt;&lt;/span&gt;&lt;span style=&quot;caret-color: rgb(0, 0, 0); color: rgb(0, 0, 0); text-align: start; white-space-collapse: preserve;&quot;&gt;(1)&lt;br&gt;Client Information&lt;/span&gt;" style="whiteSpace=wrap;html=1;rounded=0;" vertex="1" parent="1">
          <mxGeometry x="1430" y="1220" width="120" height="60" as="geometry" />
        </mxCell>
        <mxCell id="479" value="" style="edgeStyle=orthogonalEdgeStyle;html=1;" edge="1" parent="1" source="480" target="482">
          <mxGeometry relative="1" as="geometry" />
        </mxCell>
        <mxCell id="502" style="edgeStyle=orthogonalEdgeStyle;html=1;entryX=0;entryY=0.5;entryDx=0;entryDy=0;" edge="1" parent="1" source="480" target="490">
          <mxGeometry relative="1" as="geometry" />
        </mxCell>
        <mxCell id="480" value="&lt;span style=&quot;caret-color: rgb(0, 0, 0); color: rgb(0, 0, 0); text-align: start;&quot;&gt;&lt;/span&gt;&lt;span style=&quot;caret-color: rgb(0, 0, 0); color: rgb(0, 0, 0); text-align: start;&quot;&gt;&lt;/span&gt;&lt;span style=&quot;caret-color: rgb(0, 0, 0); color: rgb(0, 0, 0); text-align: start; white-space-collapse: preserve;&quot;&gt;(2)&lt;br&gt;Employees/Contact&lt;/span&gt;" style="whiteSpace=wrap;html=1;rounded=0;" vertex="1" parent="1">
          <mxGeometry x="1430" y="1360" width="120" height="60" as="geometry" />
        </mxCell>
        <mxCell id="481" value="" style="edgeStyle=orthogonalEdgeStyle;html=1;" edge="1" parent="1" source="482" target="484">
          <mxGeometry relative="1" as="geometry" />
        </mxCell>
        <mxCell id="503" style="edgeStyle=orthogonalEdgeStyle;html=1;entryX=0;entryY=0.5;entryDx=0;entryDy=0;" edge="1" parent="1" source="482" target="490">
          <mxGeometry relative="1" as="geometry" />
        </mxCell>
        <mxCell id="482" value="&lt;span style=&quot;caret-color: rgb(0, 0, 0); color: rgb(0, 0, 0); text-align: start;&quot;&gt;&lt;/span&gt;&lt;span style=&quot;caret-color: rgb(0, 0, 0); color: rgb(0, 0, 0); text-align: start;&quot;&gt;&lt;/span&gt;&lt;span style=&quot;caret-color: rgb(0, 0, 0); color: rgb(0, 0, 0); text-align: start; white-space-collapse: preserve;&quot;&gt;(3)&lt;br&gt;Data Exchange Contacts&lt;/span&gt;" style="whiteSpace=wrap;html=1;rounded=0;" vertex="1" parent="1">
          <mxGeometry x="1430" y="1500" width="120" height="60" as="geometry" />
        </mxCell>
        <mxCell id="504" style="edgeStyle=orthogonalEdgeStyle;html=1;entryX=0;entryY=0.5;entryDx=0;entryDy=0;" edge="1" parent="1" source="484" target="490">
          <mxGeometry relative="1" as="geometry" />
        </mxCell>
        <mxCell id="484" value="&lt;span style=&quot;caret-color: rgb(0, 0, 0); color: rgb(0, 0, 0); text-align: start;&quot;&gt;&lt;/span&gt;&lt;span style=&quot;caret-color: rgb(0, 0, 0); color: rgb(0, 0, 0); text-align: start;&quot;&gt;&lt;/span&gt;&lt;span style=&quot;caret-color: rgb(0, 0, 0); color: rgb(0, 0, 0); text-align: start; white-space-collapse: preserve;&quot;&gt;(4)&lt;br&gt;Notes and Instructions&lt;/span&gt;" style="whiteSpace=wrap;html=1;rounded=0;" vertex="1" parent="1">
          <mxGeometry x="1430" y="1640" width="120" height="60" as="geometry" />
        </mxCell>
        <mxCell id="505" style="edgeStyle=orthogonalEdgeStyle;html=1;entryX=0;entryY=0.5;entryDx=0;entryDy=0;" edge="1" parent="1" source="490" target="449">
          <mxGeometry relative="1" as="geometry" />
        </mxCell>
        <mxCell id="506" style="edgeStyle=orthogonalEdgeStyle;html=1;entryX=0;entryY=0.5;entryDx=0;entryDy=0;" edge="1" parent="1" source="490" target="452">
          <mxGeometry relative="1" as="geometry" />
        </mxCell>
        <mxCell id="490" value="&lt;div style=&quot;&quot;&gt;&lt;span style=&quot;caret-color: rgb(0, 0, 0); white-space-collapse: preserve;&quot;&gt;Edit Details &lt;/span&gt;&lt;/div&gt;&lt;div style=&quot;&quot;&gt;&lt;span style=&quot;caret-color: rgb(0, 0, 0); white-space-collapse: preserve;&quot;&gt;of Already &lt;/span&gt;&lt;/div&gt;&lt;div style=&quot;&quot;&gt;&lt;span style=&quot;caret-color: rgb(0, 0, 0); white-space-collapse: preserve;&quot;&gt;Existing &lt;/span&gt;&lt;/div&gt;&lt;div style=&quot;&quot;&gt;&lt;span style=&quot;caret-color: rgb(0, 0, 0); white-space-collapse: preserve;&quot;&gt;Client?&lt;/span&gt;&lt;/div&gt;&lt;span style=&quot;caret-color: rgb(0, 0, 0); color: rgb(0, 0, 0); text-align: start;&quot;&gt;&lt;/span&gt;" style="rhombus;whiteSpace=wrap;html=1;rounded=0;fillColor=#fad7ac;strokeColor=#b46504;" vertex="1" parent="1">
          <mxGeometry x="1680" y="1410" width="105" height="105" as="geometry" />
        </mxCell>
      </root>
    </mxGraphModel>
  </diagram>
</mxfile>
